<svg xmlns="http://www.w3.org/2000/svg" viewBox="0 0 321.8 385" width="30" height="24">
	<path d="M305.4,169.4l-232.2,0l-9.7-33.5c-1.5-5-5.5-8.9-10.5-10.3l-34.1-9.2c-1.3-0.3-2.6-0.5-3.9-0.5
		c-6.8,0-12.7,4.6-14.5,11.1c-1,3.9-0.5,7.9,1.5,11.4c2,3.5,5.2,6,9.1,7l25.9,7l52.6,189.8c-7.5,3.7-12.4,11.4-12.4,19.9
		c0,12.2,10,22.2,22.2,22.2c12.2,0,22.2-10,22.2-22.2c0-0.3,0-0.6,0-0.9h107.1c0,0.3,0,0.6,0,0.9c0,12.2,10,22.2,22.2,22.2
		c12.2,0,22.2-10,22.2-22.2c0-11.2-8.6-20.7-19.5-22c-26.6-4.3-135.3-9.6-135.3-9.6l-3.6-14h135.6c6.9,0,13.1-4.7,15-11.3
		l29.3-103.2h10.8c9,0,16.3-7.3,16.3-16.3C321.6,176.7,314.4,169.4,305.4,169.4L305.4,169.4z M132.7,281.9h-25.4
		c-0.7,0-1.7,0.1-2.2-1.5c-0.6-2.1-1.4-4.9-1.4-4.9l-19.9-70.2c-0.1-0.3,0-0.7,0.2-1c0.2-0.3,0.6-0.5,0.9-0.5h30.9
		c0.5,0,1,0.4,1.1,0.9l16.8,75.4l0.1,0.2c0,0.1,0,0.2,0,0.3C133.8,281.4,133.3,281.9,132.7,281.9L132.7,281.9z M197.6,205.3
		L183.8,281c-0.1,0.5-0.6,0.9-1.1,0.9h-19.2c-0.5,0-1-0.4-1.1-0.9l-13.7-75.7c-0.1-0.3,0-0.7,0.2-1c0.2-0.3,0.5-0.4,0.9-0.4h46.6
		c0.4,0,0.7,0.2,0.9,0.4C197.5,204.6,197.6,205,197.6,205.3L197.6,205.3z M262.5,205.4L241,281.1c-0.1,0.5-0.6,0.8-1.1,0.8h-26.3
		c-0.3,0-0.7-0.2-0.9-0.4c-0.2-0.3-0.3-0.6-0.2-1l16.9-75.7c0.1-0.5,0.6-0.9,1.1-0.9h30.9c0.4,0,0.7,0.2,0.9,0.5
		C262.5,204.6,262.6,205,262.5,205.4L262.5,205.4z M262.5,205.4"/>
	<path d="M171.2,148.7c3.1,5.4,11.3,5.4,14.4,0l39.7-59.7c1.6-2.8,1.4-6.3-0.4-8.9c-1.7-2.5-4.4-3.5-7.4-3.5c-2.9,0-5.8,0-8.7,0
		l-13.8,0V16.7c0-9.2-7.5-16.7-16.7-16.7c-9.2,0-16.7,7.5-16.7,16.7v59.8l-10.3,0l-12.8,0c-6.3,0-10.3,7-7.2,12.5L171.2,148.7z
		 M171.2,148.7"/>
</svg>
