<?xml version="1.0" encoding="utf-8"?>
<!-- Generator: Adobe Illustrator 19.0.0, SVG Export Plug-In . SVG Version: 6.00 Build 0)  -->
<svg version="1.1" id="Слой_1" xmlns="http://www.w3.org/2000/svg" xmlns:xlink="http://www.w3.org/1999/xlink" x="0px" y="0px"
	 viewBox="0 0 539.8 261.6" style="enable-background:new 0 0 539.8 261.6;" xml:space="preserve">
<style type="text/css">
	.st0{fill:#454649;}
	.st1{fill:#8B7A65;}
	.st2{fill:#8D7B65;}
	.st3{fill:#FFFFFF;}
</style>
<g>
	<path class="st0" d="M298.2,86.6c-0.1-2.9-0.2-6-0.2-9.3c-0.1-5.7,0-11.9,0.3-18.7l0-0.3l4.9-7.5l-0.4-0.3
		c-0.2-0.2-0.4-0.4-0.7-0.6c-0.5-0.4-1.2-0.8-1.8-1.2c-0.3-0.2-0.7-0.3-1-0.5c-0.2-0.1-0.5-0.2-0.8-0.3l-0.5-0.1
		c-0.3-0.1-0.6-0.2-0.9-0.2c-0.3,0-0.6-0.1-1.1-0.1c-1.6-0.1-3.3,0.2-4.6,0.4c-1.5,0.3-3,0.6-4.6,1.1l-0.6,0.2l-0.3-0.5
		c-0.3-0.5-0.7-1.2-1.2-1.9c-0.4-0.5-0.9-1.1-1.6-1.7c-0.6-0.6-1.2-1.1-1.8-1.5c-0.6-0.4-1.3-0.8-2-1.2c-0.8-0.4-1.5-0.7-2.2-0.9
		c-0.6-0.2-1.4-0.4-2-0.6l-0.3-0.1c-0.8-0.2-1.6-0.3-2.3-0.4c-0.8-0.1-1.6-0.2-2.4-0.2c-0.8,0-1.6,0.1-2.4,0.2
		c-0.7,0.1-1.5,0.2-2.3,0.4l-0.2,0.1c-0.7,0.2-1.4,0.3-2,0.6c-0.7,0.2-1.4,0.5-2.2,0.9c-0.7,0.4-1.4,0.8-2,1.2
		c-0.6,0.4-1.2,0.9-1.8,1.5c-0.7,0.7-1.1,1.2-1.6,1.7c-0.5,0.7-1,1.3-1.2,1.9l-0.3,0.5l-0.6-0.2c-1.5-0.5-3.1-0.8-4.6-1.1
		c-1.1-0.2-2.6-0.4-4.1-0.4c-0.2,0-0.3,0-0.6,0c-0.4,0-0.7,0-0.9,0.1c-0.3,0-0.6,0.1-1,0.2l-0.5,0.1c-0.2,0.1-0.5,0.2-0.7,0.3
		c-0.4,0.1-0.7,0.3-1,0.5c-0.7,0.4-1.3,0.8-1.8,1.2c-0.2,0.2-0.5,0.4-0.7,0.6l-0.4,0.3l4.9,7.5l0,0.3c0.3,6.8,0.4,12.9,0.3,18.7
		c0,3.3-0.1,6.4-0.2,9.3l-0.2,4.7c-0.1,1.6-0.1,3,0.2,4.3c0.3,1.4,0.9,2.6,1.8,3.7c0.8,1,2,1.9,3.4,2.6c1.3,0.7,2.7,1.2,4.2,1.7
		l4.4,1.4c0.6,0.2,1.4,0.5,2.2,0.8c0.4,0.2,0.7,0.3,1.1,0.6c0.1,0.1,0.3,0.1,0.4,0.2l0.1,0.1c0.2,0.1,0.4,0.2,0.5,0.3
		c1.2,0.8,2.4,1.8,3.7,2.9c2.1,1.8,4,3.7,5.7,5.6l0.5,0.5l0.5-0.5c1.7-2,3.6-3.9,5.7-5.6c1.3-1.1,2.5-2,3.7-2.9
		c0.1-0.1,0.3-0.2,0.5-0.3l0.1-0.1c0.1-0.1,0.3-0.2,0.4-0.2c0.4-0.2,0.7-0.4,1.1-0.5c0.8-0.3,1.6-0.6,2.2-0.8l4.4-1.4
		c1.5-0.5,2.9-1,4.2-1.7c1.4-0.7,2.5-1.6,3.4-2.6c0.9-1.1,1.5-2.4,1.8-3.7c0.3-1.4,0.3-2.7,0.2-4.3L298.2,86.6z"/>
	<path class="st0" d="M240.5,93.2c-0.8-1-2.6-2.3-4.1-2.8c-1.4-0.5-3.2-1.3-4.9-1.9c-3.3-1.3-6.8-2.4-10.9-4
		c-0.2-0.1-0.4-0.2-0.7-0.3c1.2-0.1,2.5-0.1,3.6-0.2c3.7-0.1,7.1-0.2,10.1-0.1c3,0,7.8,0.3,7.8,0.3l0-0.4c0,0-4.8-0.5-7.8-0.6
		c-3-0.2-6.4-0.3-10.1-0.3c-2.1,0-4.4,0.1-6.7,0.2c-2.6-1-5.2-2.1-7.9-3.3c4-0.3,7.9-0.4,11.4-0.4c3.7,0,7.2,0,10.2,0.2
		c3,0.1,11.5,0.8,11.5,0.8l0.1-0.6c0,0-8.4-1.1-11.5-1.4c-3.1-0.4-6.5-0.7-10.3-0.9c-3.8-0.2-7.9-0.2-12.2-0.1
		c-1.3,0.1-2.7,0.1-4.1,0.2c-3.4-1.6-7.1-3.1-10.9-4.5c-2.6-0.9-5.3-1.7-8.1-2.2c-2.8-0.5-5.8-0.7-8.8-0.4c-2.9,0.3-5.9,0.9-8.7,2.1
		c-2.8,1.2-5.5,3.1-7.4,5.7c-1.9,2.6-2.7,5.9-2.7,9c0,0.8,0,1.6,0.1,2.4c-1.9,0.8-3.8,1.6-5.7,2.4c-4.6,1.9-9,3.7-13.4,5.3
		c-4.4,1.6-8.7,2.8-12.8,3.7c-2.1,0.4-4,0.8-6.1,1c-1.9,0.2-3.9,0.4-5.7,0.3c-3.6-0.1-6.9-0.9-9.2-2.6c-2.3-1.7-3.5-4.1-4-6.2
		c-0.5-2.1-0.5-3.8-0.4-5c0.1-1.2,0.2-1.8,0.2-1.8s-0.2,0.6-0.4,1.8c-0.2,1.2-0.5,2.9-0.2,5.2c0.2,1.1,0.5,2.4,1.1,3.6
		c0.6,1.3,1.5,2.5,2.8,3.6c1.2,1.1,2.8,1.9,4.5,2.5c1.7,0.6,3.6,0.9,5.5,1.1c2,0.2,4,0.2,6.1,0.1c2-0.1,4.2-0.4,6.4-0.7
		c4.3-0.7,8.8-1.9,13.4-3.4c4.5-1.5,9.1-3.2,13.7-5.1c1.6-0.7,3.2-1.3,4.8-2c0.2,1,0.4,1.9,0.6,2.9c0.2,0.6,0.3,1.1,0.5,1.7
		c-0.8,0.3-1.6,0.7-2.4,1c-4.4,2-8.8,3.8-13.1,5.5c-4.3,1.7-8.5,3.1-12.5,4.1c-4.1,1.1-7.9,1.7-11.6,2c-3.6,0.3-7,0.2-9.8-0.4
		c-2.9-0.5-5.3-1.6-6.9-3c-1.6-1.3-2.5-2.8-2.9-3.9c-0.4-1.1-0.5-1.7-0.5-1.7s0,0.6,0.3,1.7c0.3,1.1,1.1,2.7,2.7,4.3
		c1.6,1.5,4,2.9,7,3.6c3,0.8,6.4,1.1,10.2,1c3.7-0.2,7.8-0.7,12-1.7c4.2-1,8.5-2.4,12.8-4c5.1-1.9,10.2-4.2,15.4-6.4
		c0.6,1.5,1.4,2.9,2.2,4.3c1.7,2.5,3.7,4.7,6.1,6.5c4.7,3.5,10.4,5,15.5,5.5c0.6,0.1,1.3,0.1,1.9,0.1l1,0c0.3,0,0.6,0,0.9,0
		c1.3,0,2.6-0.2,3.9-0.4c2.5-0.5,4.9-1.6,6.8-3.2c1.9-1.6,3.2-3.7,3.8-5.8c0.6-2.1,0.7-4.1,0.5-6.1c-0.2-2-1.2-3.8-2.6-4.9
		c-1.4-1.1-2.9-1.5-4.2-1.7c-2.6-0.4-4.7-0.1-6,0.2c-1.4,0.2-2.1,0.5-2.1,0.5l0.1,0.4c0,0,0.7-0.1,2.1-0.2c1.3,0,3.3-0.1,5.7,0.5
		c1.2,0.3,2.4,0.8,3.4,1.7c1,0.9,1.6,2.2,1.6,3.8c0.1,1.6-0.2,3.4-0.8,5.1c-0.6,1.7-1.7,3.2-3.2,4.3c-1.5,1.1-3.4,1.9-5.5,2.2
		c-1,0.2-2.2,0.2-3.2,0.2c-0.3,0-0.6,0-0.9,0l-0.9-0.1c-0.6,0-1.2-0.1-1.8-0.2c-2.4-0.3-4.8-0.7-7.1-1.5c-2.3-0.8-4.5-1.9-6.6-3.4
		c-3.1-2.2-5.7-5.4-7.4-9.1c2.7-1.2,5.4-2.3,8.1-3.5c4.5-1.9,9.1-3.6,13.7-5.1c2.3-0.7,4.6-1.4,6.9-2c2.2-0.6,4.6-1,6.8-1.5
		c4.5-0.8,8.9-1.5,13.1-1.9c1.9-0.2,3.7-0.4,5.4-0.5c1,0.4,2.1,0.7,3.1,1.1c4.1,1.4,7.6,2.9,11,4.1c1.7,0.6,3.4,1.4,4.9,1.9
		c1.4,0.4,2.8,1.6,3.6,2.6c1.7,1.9,2.2,2.9,2.7,4.2c0.5,1.2,0.7,1.9,0.7,1.9l0.3-0.1c0,0-0.2-0.7-0.7-2
		C242.4,96.8,242.2,95.1,240.5,93.2z M160.7,87.2c-0.1-2.6,0.5-5.3,1.9-7.4c1.4-2.2,3.6-3.8,6.1-4.9c2.5-1.1,5.2-1.8,7.9-2.1
		c5.5-0.8,10.9,0.4,16,2c2.7,0.9,5.3,1.8,7.9,2.9c-0.8,0.1-1.6,0.1-2.5,0.2c-1.1,0.1-2.3,0.3-3.5,0.4c-4.8,0.6-9.6,1.7-14.4,3
		c-4.8,1.4-9.6,3.1-14.3,4.9c-1.7,0.7-3.4,1.4-5.1,2.1C160.7,88,160.7,87.6,160.7,87.2z M211.7,83.3c-4.2,0.3-8.7,0.9-13.3,1.6
		c-2.3,0.5-4.6,0.8-6.9,1.4c-2.3,0.5-4.7,1.2-7,1.9c-4.7,1.4-9.3,3.1-13.9,5c-2.7,1.1-5.4,2.3-8.1,3.4c-0.1-0.4-0.3-0.8-0.4-1.3
		c-0.3-1.1-0.6-2.1-0.8-3.2c2-0.8,4-1.6,6-2.4c4.6-1.9,9.3-3.6,14-5c4.7-1.4,9.3-2.6,13.9-3.3c1.2-0.2,2.3-0.4,3.5-0.6
		c1.1-0.1,2.2-0.3,3.4-0.4c1.3-0.2,2.7-0.3,4-0.4c0.4,0.2,0.9,0.4,1.3,0.6c2.3,1,4.5,1.9,6.7,2.7C213.1,83.2,212.4,83.3,211.7,83.3z
		"/>
	<path class="st0" d="M220.8,90.1c0,0,1.9,0.7,4.6,1.8c0.7,0.3,1.4,0.6,2.2,0.9c0.8,0.3,1.6,0.7,2.4,1.1c1.7,0.7,3.5,1.5,5.2,2.3
		l1.3,0.5c0.5,0.2,0.9,0.4,1.4,0.5c0.9,0.3,1.8,0.7,2.6,1.1c1.7,0.7,3.3,1.4,4.6,2.1c2.7,1.3,4.4,2.4,4.4,2.4s-2-0.3-4.9-1
		c-1.4-0.4-3.1-0.8-4.9-1.4c-0.9-0.3-1.8-0.6-2.7-0.9c-0.9-0.3-1.9-0.6-2.8-1c-1.9-0.8-3.6-1.7-5.3-2.6c-0.8-0.4-1.6-0.9-2.3-1.4
		c-0.7-0.4-1.4-0.9-2-1.3C222.3,91.5,220.8,90.1,220.8,90.1z"/>
	<path class="st0" d="M298.7,98.1c-0.5,1.3-0.7,2-0.7,2l0.3,0.1c0,0,0.2-0.7,0.7-1.9c0.5-1.2,1.1-2.3,2.7-4.2
		c0.8-0.9,2.2-2.1,3.6-2.6c1.4-0.5,3.2-1.3,4.9-1.9c3.3-1.2,6.9-2.7,11-4.1c1-0.4,2-0.7,3.1-1.1c1.8,0.1,3.6,0.3,5.4,0.5
		c4.2,0.4,8.6,1.1,13.1,1.9c2.2,0.5,4.6,0.9,6.8,1.5c2.3,0.6,4.6,1.2,6.9,2c4.6,1.5,9.1,3.2,13.7,5.1c2.7,1.1,5.4,2.3,8.1,3.5
		c-1.7,3.7-4.2,6.9-7.4,9.1c-2,1.5-4.3,2.6-6.6,3.4c-2.3,0.8-4.7,1.2-7.1,1.5c-0.6,0.1-1.2,0.1-1.8,0.2l-0.9,0.1c-0.3,0-0.6,0-0.9,0
		c-1.1,0-2.2-0.1-3.2-0.2c-2.1-0.4-4-1.1-5.5-2.2c-1.5-1.1-2.6-2.7-3.2-4.3c-0.6-1.6-0.8-3.5-0.8-5.1c0-1.6,0.6-2.9,1.6-3.8
		c1-0.9,2.2-1.4,3.4-1.7c2.4-0.6,4.4-0.5,5.7-0.5c1.3,0.1,2.1,0.2,2.1,0.2l0.1-0.4c0,0-0.7-0.2-2.1-0.5c-1.4-0.2-3.4-0.5-6-0.2
		c-1.3,0.2-2.8,0.6-4.2,1.7c-1.4,1-2.4,2.9-2.6,4.9c-0.2,1.9-0.1,3.9,0.5,6.1c0.6,2.1,1.9,4.2,3.8,5.8c1.9,1.6,4.3,2.7,6.8,3.2
		c1.3,0.3,2.5,0.4,3.9,0.4c0.4,0,0.6,0,0.9,0l1,0c0.6,0,1.3-0.1,1.9-0.1c5.1-0.5,10.8-1.9,15.5-5.5c2.4-1.7,4.4-4,6.1-6.5
		c0.9-1.4,1.6-2.8,2.2-4.3c5.2,2.3,10.4,4.5,15.4,6.4c4.4,1.6,8.7,3,12.8,4c4.2,1,8.3,1.5,12,1.7c3.8,0.1,7.2-0.2,10.2-1
		c3-0.8,5.4-2.1,7-3.6c1.6-1.5,2.4-3.1,2.7-4.3c0.3-1.1,0.3-1.7,0.3-1.7s0,0.6-0.5,1.7c-0.4,1-1.3,2.5-2.9,3.9c-1.6,1.3-4,2.4-6.9,3
		c-2.9,0.6-6.2,0.7-9.8,0.4c-3.7-0.3-7.5-0.9-11.6-2c-4-1-8.2-2.5-12.5-4.1c-4.3-1.7-8.6-3.6-13.1-5.5c-0.8-0.3-1.6-0.7-2.4-1
		c0.2-0.6,0.4-1.1,0.5-1.7c0.3-0.9,0.5-1.9,0.6-2.9c1.6,0.7,3.2,1.3,4.8,2c4.6,1.9,9.2,3.7,13.7,5.1c4.5,1.5,9,2.7,13.4,3.4
		c2.2,0.3,4.4,0.6,6.4,0.7c2.1,0.1,4.1,0.1,6.1-0.1c1.9-0.2,3.8-0.5,5.5-1.1c1.7-0.6,3.3-1.4,4.5-2.5c1.2-1.1,2.2-2.3,2.8-3.6
		c0.6-1.3,0.9-2.5,1.1-3.6c0.3-2.2,0-4-0.2-5.2c-0.2-1.2-0.4-1.8-0.4-1.8s0.1,0.6,0.2,1.8c0.1,1.2,0.1,2.9-0.4,5
		c-0.5,2.1-1.7,4.5-4,6.2c-2.3,1.7-5.6,2.5-9.2,2.6c-1.8,0.1-3.7-0.1-5.7-0.3c-2.1-0.2-4-0.6-6.1-1c-4.1-0.9-8.4-2.2-12.8-3.7
		c-4.4-1.6-8.8-3.4-13.4-5.3c-1.9-0.8-3.8-1.6-5.7-2.4c0.1-0.8,0.1-1.6,0.1-2.4c0-3.1-0.8-6.4-2.7-9c-1.8-2.7-4.6-4.5-7.4-5.7
		c-2.8-1.2-5.8-1.8-8.7-2.1c-2.9-0.3-5.9-0.2-8.8,0.4c-2.8,0.5-5.5,1.3-8.1,2.2c-3.8,1.3-7.5,2.9-10.9,4.5c-1.4-0.1-2.7-0.1-4.1-0.2
		c-4.4-0.1-8.5-0.1-12.2,0.1c-3.8,0.2-7.2,0.5-10.3,0.9c-3.1,0.3-11.5,1.4-11.5,1.4l0.1,0.6c0,0,8.4-0.7,11.5-0.8
		c3-0.2,6.5-0.2,10.2-0.2c3.5,0,7.4,0.2,11.4,0.4c-2.7,1.2-5.4,2.3-7.9,3.3c-2.3-0.1-4.6-0.1-6.7-0.2c-3.7,0-7.1,0.1-10.1,0.3
		c-3,0.2-7.8,0.6-7.8,0.6l0,0.4c0,0,4.8-0.3,7.8-0.3c3-0.1,6.4,0,10.1,0.1c1.2,0,2.4,0.1,3.6,0.2c-0.2,0.1-0.4,0.2-0.7,0.3
		c-4.1,1.6-7.6,2.7-10.9,4c-1.7,0.6-3.5,1.3-4.9,1.9c-1.5,0.5-3.2,1.8-4.1,2.8C299.3,95.1,299.2,96.8,298.7,98.1z M380.9,88.4
		c-1.7-0.7-3.4-1.4-5.1-2.1c-4.7-1.8-9.5-3.6-14.3-4.9c-4.8-1.4-9.7-2.4-14.4-3c-1.2-0.1-2.3-0.3-3.5-0.4c-0.8-0.1-1.6-0.1-2.5-0.2
		c2.6-1,5.2-2,7.9-2.9c5.1-1.6,10.5-2.8,16-2c2.7,0.3,5.5,1,7.9,2.1c2.5,1.1,4.7,2.8,6.1,4.9c1.5,2.1,2,4.8,1.9,7.4
		C380.9,87.6,380.9,88,380.9,88.4z M327.7,83.2c2.2-0.8,4.4-1.7,6.7-2.7c0.4-0.2,0.9-0.4,1.3-0.6c1.3,0.1,2.7,0.2,4,0.4
		c1.1,0.1,2.2,0.3,3.4,0.4c1.1,0.2,2.3,0.4,3.5,0.6c4.6,0.7,9.2,1.9,13.9,3.3c4.7,1.5,9.3,3.1,14,5c2,0.8,4,1.6,6,2.4
		c-0.2,1.1-0.5,2.2-0.8,3.2c-0.1,0.4-0.3,0.8-0.4,1.3c-2.7-1.2-5.4-2.3-8.1-3.4c-4.6-1.9-9.2-3.6-13.9-5c-2.3-0.7-4.7-1.3-7-1.9
		c-2.4-0.6-4.7-0.9-6.9-1.4c-4.6-0.7-9.1-1.3-13.3-1.6C329.2,83.3,328.5,83.2,327.7,83.2z"/>
	<path class="st0" d="M320.7,90.1c0,0-1.9,0.7-4.6,1.8c-0.7,0.3-1.4,0.6-2.2,0.9c-0.8,0.3-1.6,0.7-2.4,1.1c-1.7,0.7-3.5,1.5-5.2,2.3
		l-1.3,0.5c-0.5,0.2-0.9,0.4-1.4,0.5c-0.9,0.3-1.8,0.7-2.6,1.1c-1.7,0.7-3.3,1.4-4.6,2.1c-2.7,1.3-4.4,2.4-4.4,2.4s2-0.3,4.9-1
		c1.4-0.4,3.1-0.8,4.9-1.4c0.9-0.3,1.8-0.6,2.7-0.9c0.9-0.3,1.9-0.6,2.8-1c1.9-0.8,3.6-1.7,5.3-2.6c0.8-0.4,1.6-0.9,2.3-1.4
		c0.7-0.4,1.4-0.9,2-1.3C319.2,91.5,320.7,90.1,320.7,90.1z"/>
	<path class="st1" d="M301.3,86.5c-0.1-3.4-0.1-6.3-0.1-9.3c0-6.5,0-12.3,0.2-18.1l5.3-8.5l-0.7-0.9c-0.3-0.5-0.6-0.8-1-1.1
		c-0.3-0.3-0.7-0.6-1.1-0.9c-0.7-0.6-1.5-1-2.3-1.4c-0.4-0.2-0.8-0.4-1.2-0.5c-0.4-0.2-0.8-0.3-1.3-0.4l-0.3-0.1
		c-0.3-0.1-0.7-0.1-1.1-0.2c-0.4-0.1-0.8-0.1-1.2-0.1l-0.1,0c-1.8,0-3.6,0.3-5.1,0.6c-1.2,0.3-2.5,0.6-3.8,1.1
		c-0.3-0.4-0.6-0.8-1-1.2c-0.5-0.6-1.1-1.2-1.9-1.8c-0.7-0.6-1.4-1.1-2.1-1.5c-0.7-0.4-1.4-0.8-2.3-1.2c-0.8-0.4-1.6-0.6-2.4-0.8
		c-0.8-0.2-1.6-0.4-2.4-0.6c-0.9-0.2-1.7-0.3-2.4-0.4c-0.4,0-2-0.2-2-0.2c-0.1,0-0.3,0-0.5,0c0,0,0,0,0,0c0,0,0,0-0.1,0
		c0,0,0,0-0.1,0c0,0,0,0,0,0c-0.2,0-0.4,0-0.5,0c0,0-1.6,0.1-2,0.2c-0.7,0.1-1.6,0.2-2.4,0.4c-0.8,0.2-1.6,0.3-2.4,0.6
		c-0.8,0.2-1.6,0.5-2.4,0.8c-0.8,0.4-1.6,0.8-2.3,1.2c-0.7,0.4-1.3,0.9-2.1,1.5c-0.7,0.6-1.3,1.2-1.9,1.8c-0.3,0.4-0.7,0.8-1,1.2
		c-1.4-0.4-2.6-0.8-3.8-1.1c-1.5-0.3-3.2-0.6-5.1-0.6l-0.1,0c-0.4,0-0.8,0-1.2,0.1c-0.4,0-0.7,0.1-1.1,0.2l-0.3,0.1
		c-0.5,0.2-0.9,0.3-1.3,0.4c-0.4,0.1-0.8,0.3-1.2,0.5c-0.8,0.4-1.6,0.9-2.3,1.4c-0.4,0.3-0.7,0.6-1.1,0.9c-0.4,0.4-0.7,0.7-1,1.1
		l-0.7,0.9l5.3,8.5c0.2,5.8,0.2,11.6,0.2,18.1c0,2.9-0.1,5.8-0.1,9.3l-0.1,4.6c-0.1,1.4-0.1,3.3,0.4,5.1c0.4,1.7,1.3,3.4,2.5,4.8
		c1.1,1.2,2.5,2.3,4.2,3.1c2.3,1.1,4.7,1.7,7,2.3c0.7,0.2,1.4,0.4,2.1,0.5c0.6,0.2,1.4,0.4,2.1,0.7l0.1,0.1c0.3,0.1,0.6,0.2,0.9,0.4
		c0.1,0,0.2,0.1,0.3,0.2l0.1,0.1c0.2,0.1,0.3,0.2,0.5,0.3c1.2,0.7,2.5,1.5,3.8,2.5c1.2,0.9,2.4,1.8,3.6,2.9c0.8,0.7,1.6,1.5,2.5,2.3
		c0,0,0.8,0.8,0.9,0.8l0,0l0,0c0,0,0.9-0.8,0.9-0.8c0.9-0.8,1.7-1.6,2.5-2.3c1.2-1,2.4-2,3.6-2.9c1.3-1,2.6-1.8,3.8-2.5
		c0.2-0.1,0.3-0.2,0.5-0.3l0.1-0.1c0.1-0.1,0.2-0.1,0.3-0.2c0.3-0.1,0.6-0.2,0.9-0.4l0.1-0.1c0.7-0.3,1.5-0.5,2.1-0.7
		c0.7-0.2,1.4-0.4,2.1-0.5c2.3-0.6,4.7-1.2,7-2.3c1.7-0.8,3.1-1.8,4.2-3.1c1.2-1.3,2.1-3,2.5-4.8c0.4-1.7,0.4-3.6,0.4-5.1
		L301.3,86.5z M297.9,58.1l0,0.5c-0.3,6.8-0.4,13-0.3,18.7c0,3.4,0.1,6.4,0.2,9.4l0.2,4.7c0.1,1.6,0.1,2.9-0.2,4.2
		c-0.3,1.3-0.8,2.5-1.7,3.5c-0.8,0.9-1.9,1.8-3.2,2.5c-1.3,0.7-2.7,1.2-4.1,1.7l-4.4,1.4c-0.6,0.2-1.5,0.5-2.3,0.8
		c-0.4,0.2-0.8,0.4-1.2,0.6c-0.1,0.1-0.3,0.2-0.4,0.3l-0.1,0.1c-0.2,0.1-0.4,0.2-0.5,0.4c-1.2,0.8-2.5,1.8-3.8,2.9
		c-2.1,1.8-4.1,3.7-5.7,5.7c-1.7-1.9-3.6-3.9-5.7-5.7c-1.3-1.1-2.6-2.1-3.8-2.9c-0.2-0.1-0.4-0.3-0.5-0.4l-0.1-0.1
		c-0.1-0.1-0.3-0.2-0.4-0.3c-0.4-0.2-0.8-0.4-1.2-0.6c-0.8-0.3-1.7-0.6-2.3-0.8l-4.4-1.4c-1.4-0.5-2.8-1-4.1-1.7
		c-1.3-0.7-2.4-1.5-3.2-2.5c-0.8-1-1.4-2.2-1.7-3.5c-0.3-1.3-0.3-2.6-0.2-4.2l0.2-4.7c0.1-2.9,0.2-6,0.2-9.4
		c0.1-5.8,0-11.9-0.3-18.7l0-0.5l-4.7-7.2c0.2-0.2,0.4-0.4,0.6-0.6c0.5-0.4,1.1-0.8,1.7-1.1c0.3-0.2,0.6-0.3,1-0.5
		c0.2-0.1,0.5-0.2,0.7-0.3l0.4-0.1c0.3-0.1,0.6-0.1,0.8-0.2c0.3,0,0.6-0.1,1-0.1c1.6-0.1,3.2,0.2,4.5,0.4c1.5,0.2,3,0.6,4.5,1
		l1.1,0.3l0.5-1c0.3-0.5,0.7-1.1,1.2-1.8c0.4-0.5,0.9-1,1.5-1.6c0.6-0.6,1.2-1.1,1.7-1.4c0.6-0.4,1.2-0.8,1.9-1.2
		c0.7-0.4,1.4-0.7,2.1-0.9c0.6-0.2,1.3-0.4,2-0.5l0.2-0.1c0.8-0.2,1.6-0.3,2.3-0.4c0.8-0.1,1.6-0.2,2.3-0.2c0.8,0,1.5,0.1,2.3,0.2
		c0.7,0.1,1.5,0.2,2.3,0.4l0.2,0.1c0.7,0.2,1.4,0.3,2,0.5c0.7,0.2,1.4,0.5,2.1,0.9c0.7,0.4,1.3,0.8,1.9,1.2c0.6,0.4,1.1,0.9,1.7,1.4
		c0.6,0.6,1.1,1.1,1.5,1.6c0.5,0.7,0.9,1.3,1.2,1.8l0.5,1l1.1-0.3c1.5-0.4,3-0.8,4.5-1c1.2-0.2,2.9-0.5,4.5-0.4c0.4,0,0.7,0,1,0.1
		c0.3,0,0.6,0.1,0.8,0.2l0.4,0.1c0.2,0.1,0.5,0.2,0.7,0.3c0.4,0.1,0.7,0.3,1,0.5c0.6,0.3,1.2,0.7,1.7,1.1c0.2,0.2,0.4,0.4,0.6,0.6
		L297.9,58.1z"/>
	<path class="st1" d="M282.6,31.1l1.4-24L274.8,28l-4-25l0-0.4l0,0.2l0-0.2l0,0.4l-4,25l-9.2-20.9l1.4,24l-13.6-16.7l10.1,24
		c0,0,2.4-2.9,7.7-4.4c2.6-0.8,5.4-1,7.6-1c2.1,0,5,0.2,7.6,1c5.3,1.6,7.7,4.4,7.7,4.4l10.1-24L282.6,31.1z"/>
	<circle class="st1" cx="296.3" cy="13.8" r="2.7"/>
	<circle class="st1" cx="284" cy="6.3" r="2.7"/>
	<circle class="st1" cx="270.7" cy="2.7" r="2.7"/>
	<circle class="st1" cx="244.4" cy="13.8" r="2.7"/>
	<circle class="st1" cx="257.2" cy="6.3" r="2.7"/>
</g>
<path class="st0" d="M350.3,224.7L350.3,224.7l0-0.5l0-0.4l-0.1-0.5c-0.1-0.3-0.1-0.7-0.2-0.9l-0.3-0.8c-0.2-0.5-0.5-1-0.7-1.5
	c-0.3-0.5-0.6-0.9-0.9-1.4c-1.3-1.7-3-3.1-4.8-4.1c-3.6-2.1-7.5-3.1-11.2-3.5c-3.8-0.4-7.5-0.4-11-0.1c-0.3,0-0.6,0.1-1,0.1
	c-0.1-0.4-0.2-0.7-0.3-1.1c-0.1-0.3-0.2-0.6-0.4-1c-0.1-0.3-0.3-0.6-0.4-0.9c-0.8-1.3-2-2.3-3.3-3c-1.3-0.7-2.8-1.1-4.3-1.3
	c-1.5-0.2-3.1-0.3-4.7-0.2c-1.6,0.1-3.2,0.3-4.8,0.7c-1.7,0.4-3.1,0.9-4.7,1.4c-3.2,1-6.4,2.2-9.6,3.8c-3.2,1.5-6.4,3.3-9.5,5.4
	c-1.5,1-3.1,2-4.6,3c-0.9,0.5-1.8,1-2.7,1.5c-0.9-0.5-1.8-1-2.7-1.5c-1.5-0.9-3.1-1.9-4.6-3c-3.1-2-6.3-3.9-9.5-5.4
	c-3.2-1.5-6.4-2.7-9.6-3.8c-1.6-0.5-3.1-1-4.7-1.4c-1.6-0.4-3.2-0.6-4.8-0.7c-1.6-0.1-3.1,0-4.7,0.2c-1.5,0.2-3,0.6-4.3,1.3
	c-1.3,0.7-2.5,1.7-3.3,3c-0.1,0.3-0.3,0.6-0.4,0.9c-0.2,0.4-0.3,0.7-0.4,1c-0.1,0.4-0.2,0.7-0.3,1.1c-0.3,0-0.6-0.1-1-0.1
	c-3.6-0.2-7.2-0.3-11,0.1c-3.8,0.4-7.7,1.4-11.2,3.5c-1.8,1-3.5,2.4-4.8,4.1c-0.3,0.5-0.6,0.9-0.9,1.4c-0.2,0.5-0.6,1-0.7,1.5
	l-0.3,0.8c-0.1,0.3-0.2,0.6-0.2,0.9l-0.1,0.5l0,0.4l0,0.4l0,0.1c0,0.1,0-0.1,0,0.2l0,0.2c0,1.2,0.4,2.4,0.9,3.5c0.5,1.1,1.2,2,2,2.9
	c1.6,1.6,3.5,2.8,5.5,3.6c2,0.8,4.1,1.4,6.2,1.8l1.6,0.2c0.5,0.1,1,0.1,1.5,0.2l0.8,0.1c0.3,0,0.5,0,0.8,0.1l1.5,0.1
	c4.1,0.2,8.2,0.3,12.4,0c8.3-0.5,16.5-1.9,24.2-4.7c3.8-1.4,7.5-2.9,11.1-4.6c0.1-0.1,0.3-0.1,0.4-0.2c0.5,0.5,1,1,1.5,1.5
	c-0.8,0.4-1.5,0.7-2.3,1.1c-3.3,1.5-6.6,3-9.9,4.3c-3.3,1.3-6.6,2.5-9.9,3.5l-1.2,0.4L237,239l-0.6,0.2c-0.8,0.2-1.6,0.4-2.4,0.6
	c-0.8,0.2-1.5,0.3-2.3,0.4c-0.8,0.1-1.6,0.2-2.3,0.3c-3.1,0.3-6,0.4-8.7,0.4c-5.4-0.1-10-0.6-13.1-1.3c-1.6-0.3-2.7-0.8-3.5-1.1
	c-0.8-0.4-1.2-0.6-1.2-0.6s0.4,0.3,1.1,0.7c0.8,0.4,1.9,1,3.5,1.4c1.5,0.5,3.4,0.9,5.6,1.3c2.2,0.4,4.7,0.7,7.5,0.9
	c2.8,0.2,5.8,0.2,8.9,0c0.8,0,1.6-0.1,2.4-0.2c0.8-0.1,1.6-0.2,2.5-0.3c0.9-0.1,1.7-0.3,2.5-0.5l0.6-0.1l0.7-0.2l1.2-0.3
	c3.3-1,6.7-2,10.1-3.3c3.4-1.3,6.8-2.7,10.1-4.2c1-0.5,2-1,2.9-1.5c0.3,0.3,0.5,0.6,0.8,0.8c3.8,4.2,7,8.1,7,8.1l0,0l0,0
	c0,0,3.2-3.8,7-8.1c0.3-0.3,0.5-0.6,0.8-0.8c1,0.5,2,1,2.9,1.5c3.3,1.6,6.7,3,10.1,4.2c3.4,1.3,6.8,2.4,10.1,3.3l1.2,0.3l0.7,0.2
	l0.6,0.1c0.8,0.2,1.6,0.4,2.5,0.5c0.8,0.1,1.7,0.3,2.5,0.3c0.8,0.1,1.6,0.2,2.4,0.2c3.2,0.2,6.2,0.2,8.9,0c2.8-0.2,5.3-0.5,7.5-0.9
	c2.2-0.4,4.1-0.8,5.6-1.3c1.5-0.5,2.7-1,3.5-1.4c0.7-0.5,1.1-0.7,1.1-0.7s-0.4,0.2-1.2,0.6c-0.8,0.3-2,0.7-3.5,1.1
	c-3.1,0.7-7.6,1.2-13.1,1.3c-2.7,0-5.7-0.1-8.7-0.4c-0.8-0.1-1.5-0.2-2.3-0.3c-0.8-0.1-1.6-0.3-2.3-0.4c-0.8-0.1-1.6-0.4-2.4-0.6
	l-0.6-0.2l-0.6-0.2l-1.2-0.4c-3.2-1-6.5-2.2-9.9-3.5c-3.3-1.3-6.7-2.7-9.9-4.3c-0.8-0.4-1.5-0.7-2.3-1.1c0.5-0.5,1-1,1.5-1.5
	c0.1,0.1,0.3,0.1,0.4,0.2c3.6,1.7,7.3,3.2,11.1,4.6c7.8,2.8,16,4.2,24.2,4.7c4.1,0.2,8.3,0.2,12.4,0l1.5-0.1c0.3,0,0.5,0,0.8-0.1
	l0.8-0.1c0.5-0.1,1-0.1,1.5-0.2l1.6-0.2c2.1-0.4,4.2-0.9,6.2-1.8c2-0.8,3.9-2,5.5-3.6c0.8-0.8,1.5-1.8,2-2.9
	c0.5-1.1,0.9-2.3,0.9-3.5l0-0.2C350.3,224.6,350.3,224.7,350.3,224.7z M271.2,223.1c0.1,0.1,0.3,0.1,0.4,0.2
	c-0.4,0.3-0.8,0.5-1.2,0.8c-0.4-0.3-0.8-0.5-1.2-0.8c0.1-0.1,0.3-0.1,0.4-0.2c0.3-0.1,0.6-0.3,0.8-0.4
	C270.7,222.8,270.9,223,271.2,223.1z M222.6,210.4c0.1-0.3,0.2-0.6,0.3-0.8c0.2-0.3,0.3-0.6,0.5-0.9c0.6-0.9,1.6-1.7,2.8-2.2
	c2.3-1.1,5.2-1.3,8.1-1c1.5,0.1,3,0.4,4.4,0.8c1.4,0.4,3,1,4.5,1.5c3,1.1,6.2,2.4,9.2,3.9c3.1,1.5,6.1,3.3,9,5.4
	c1.5,1,3,2.1,4.7,3.1c0.3,0.2,0.6,0.4,0.9,0.5c-0.4,0.2-0.7,0.4-1.1,0.5c-0.8-0.5-1.6-0.9-2.3-1.4c-3-1.7-6-3.2-8.9-4.5
	c-1.4-0.6-2.9-1.3-4.2-1.8c-1.4-0.6-2.8-1-4.1-1.5c-5.3-1.7-9.8-2.4-13-2.9c-3.2-0.5-5-0.6-5-0.6s1.8,0.3,4.9,1
	c3.1,0.7,7.5,1.8,12.6,3.7c2.5,0.9,5.2,2.2,8,3.6c2.8,1.4,5.7,2.9,8.6,4.7c0.4,0.2,0.7,0.5,1.1,0.7c-1.9,0.9-3.9,1.8-5.9,2.7
	c-0.1-0.1-0.2-0.2-0.3-0.3c-0.9-0.7-2-1.4-3-2.1c-4.3-2.6-9.3-5.1-15.1-7.3c-2.9-1.1-5.9-2.1-9.2-2.9c-2.5-0.6-5.2-1.1-7.9-1.5
	C222.4,210.9,222.4,210.7,222.6,210.4z M246.8,229.7c-7.4,2.6-15.3,3.9-23.3,4.4c-4,0.2-8,0.2-12,0c-4-0.2-7.8-0.7-11.3-2.1
	c-1.7-0.7-3.2-1.6-4.4-2.8c-0.6-0.6-1.1-1.2-1.4-2c-0.4-0.7-0.6-1.4-0.6-2.2l0-0.1l0-0.1l0-0.4l0-0.4l0.1-0.2c0-0.2,0.1-0.3,0.1-0.5
	l0.2-0.6c0.1-0.4,0.4-0.7,0.5-1.1c0.2-0.4,0.5-0.7,0.7-1c1-1.4,2.4-2.5,3.9-3.4c3-1.8,6.5-2.8,10-3.3c3.5-0.5,7-0.5,10.5-0.4
	c0.3,0,0.5,0,0.8,0.1c-0.1,1.9,0.3,3.8,1.1,5.4c0.5,1,1.1,1.9,1.9,2.6c0.8,0.7,1.6,1.3,2.4,1.6c0.4,0.2,0.9,0.3,1.3,0.4
	c0.4,0.1,0.8,0.1,1.2,0.2c0.8,0.1,1.6,0.1,2.3,0c1.4-0.1,2.6-0.5,3.4-1c0.8-0.5,1.3-1.1,1.6-1.5c0.3-0.4,0.3-0.7,0.3-0.7
	s-0.1,0.2-0.4,0.6c-0.3,0.4-0.8,0.9-1.7,1.3c-0.8,0.4-2,0.7-3.3,0.7c-0.3,0-0.7,0-1.1,0c-0.4,0-0.7-0.1-1.1-0.1
	c-0.4-0.1-0.8-0.2-1.2-0.3c-0.4-0.2-0.8-0.2-1.1-0.5c-0.8-0.4-1.5-0.9-2.1-1.6c-0.6-0.7-1.2-1.5-1.6-2.5c-0.6-1.4-0.9-3.1-0.7-4.9
	c6.1,0.6,11.7,2,16.9,3.7c2.9,0.9,5.6,2,8.1,3.1c2.5,1.1,4.9,2.2,7,3.4c1,0.6,2,1.1,2.8,1.7C253.4,227.1,250.1,228.5,246.8,229.7z
	 M260.4,227.7c2.2-1,4.4-2.1,6.5-3.2c0.5,0.3,1,0.6,1.5,1c-0.1,0.1-0.2,0.1-0.2,0.2c-2,1.3-4.2,2.5-6.4,3.6
	C261.3,228.7,260.8,228.2,260.4,227.7z M276.9,231.8c-2.3,2.8-3.9,5-5.1,6.5c-0.7,0.9-1.2,1.6-1.4,1.9c-0.3-0.4-0.8-1-1.4-1.9
	c-1.2-1.5-2.8-3.8-5.1-6.5c-0.2-0.2-0.4-0.5-0.6-0.8c2.1-1.1,4.1-2.2,6.1-3.5c0.4-0.2,0.7-0.5,1.1-0.7c0.4,0.2,0.7,0.5,1.1,0.7
	c1.9,1.3,4,2.4,6.1,3.5C277.3,231.3,277.1,231.5,276.9,231.8z M279.1,229.2c-2.2-1.1-4.4-2.3-6.4-3.6c-0.1-0.1-0.2-0.1-0.2-0.2
	c0.5-0.3,1-0.7,1.5-1c2.1,1.1,4.3,2.1,6.5,3.2C280,228.2,279.5,228.7,279.1,229.2z M282.9,225.2c-2-0.9-3.9-1.8-5.9-2.7
	c0.4-0.2,0.8-0.5,1.1-0.7c2.9-1.7,5.8-3.3,8.6-4.7c2.8-1.4,5.5-2.7,8-3.6c5.1-1.9,9.5-3,12.6-3.7c3.1-0.7,4.9-1,4.9-1
	s-1.8,0.1-5,0.6c-3.2,0.5-7.7,1.2-13,2.9c-1.3,0.4-2.7,0.9-4.1,1.5c-1.4,0.6-2.8,1.2-4.2,1.8c-2.9,1.3-5.9,2.8-8.9,4.5
	c-0.8,0.4-1.6,0.9-2.3,1.4c-0.4-0.2-0.7-0.4-1.1-0.5c0.3-0.2,0.6-0.3,0.9-0.5c1.7-1,3.2-2.1,4.7-3.1c3-2.1,6-3.9,9-5.4
	c3.1-1.5,6.2-2.8,9.2-3.9c1.5-0.5,3.1-1.1,4.5-1.5c1.4-0.4,2.9-0.6,4.4-0.8c2.9-0.2,5.8,0,8.1,1c1.2,0.5,2.1,1.3,2.8,2.2
	c0.2,0.3,0.3,0.6,0.5,0.9c0.1,0.2,0.2,0.5,0.3,0.8c0.1,0.2,0.2,0.5,0.3,0.8c-2.7,0.3-5.4,0.8-7.9,1.5c-3.2,0.8-6.3,1.8-9.2,2.9
	c-5.8,2.2-10.8,4.7-15.1,7.3c-1.1,0.7-2.1,1.3-3,2.1C283.1,225,283,225.1,282.9,225.2z M347,225c0,0.7-0.2,1.5-0.6,2.2
	c-0.3,0.7-0.8,1.4-1.4,2c-1.2,1.2-2.7,2.1-4.4,2.8c-3.4,1.4-7.3,1.9-11.3,2.1c-4,0.2-8,0.2-12,0c-8-0.4-16-1.8-23.3-4.4
	c-3.3-1.2-6.6-2.5-9.9-3.9c0.9-0.6,1.8-1.2,2.8-1.7c2.1-1.2,4.5-2.3,7-3.4c2.5-1.1,5.2-2.2,8.1-3.1c5.2-1.7,10.8-3.2,16.9-3.7
	c0.1,1.7-0.1,3.4-0.7,4.9c-0.4,1-0.9,1.8-1.6,2.5c-0.7,0.7-1.4,1.2-2.1,1.6c-0.4,0.2-0.8,0.3-1.1,0.5c-0.4,0.1-0.8,0.2-1.2,0.3
	c-0.4,0-0.7,0.1-1.1,0.1c-0.4,0-0.7,0-1.1,0c-1.4,0-2.5-0.3-3.3-0.7c-0.8-0.4-1.4-1-1.7-1.3c-0.3-0.4-0.4-0.6-0.4-0.6
	s0.1,0.2,0.3,0.7c0.3,0.4,0.8,1,1.6,1.5c0.8,0.5,2,0.9,3.4,1c0.7,0,1.4,0,2.3,0c0.4-0.1,0.8-0.1,1.2-0.2c0.4-0.1,0.9-0.2,1.3-0.4
	c0.9-0.4,1.7-0.9,2.4-1.6c0.7-0.7,1.4-1.6,1.9-2.6c0.7-1.6,1.1-3.4,1.1-5.4c0.3,0,0.5,0,0.8-0.1c3.4-0.1,6.9-0.1,10.5,0.4
	c3.5,0.5,7,1.5,10,3.3c1.5,0.9,2.9,2,3.9,3.4c0.2,0.4,0.5,0.7,0.7,1c0.2,0.4,0.4,0.7,0.5,1.1l0.2,0.6c0.1,0.2,0.1,0.3,0.1,0.5
	l0.1,0.2l0,0.4l0,0.4l0,0.1L347,225z"/>
<polygon class="st2" points="270.4,261.6 265.7,254.6 270.4,247.5 275.1,254.6 "/>
<path class="st3" d="M256.2,90.2c2.1-0.4,2.5-0.6,2.6-3.4c0.1-2.5,0.1-8.9,0.1-11.6c0-3.3,0.1-8.6-0.1-10.8
	c-0.1-1.4-0.3-2.2-1.8-2.6c-0.7-0.2-1.8-0.3-2.9-0.5c-0.3-0.3-0.2-1.9,0.2-2.1c1.1,0,4.1,0.2,6.9,0.2c2.9,0,6.5-0.2,7.5-0.2
	c0.3,0.2,0.3,1.9-0.1,2.1c-1.1,0.2-1.5,0.3-2.2,0.4c-1.7,0.3-2.4,1-2.4,2.9c-0.1,2.1-0.1,6.4-0.1,9.5c0,0.1,0.1,0.2,0.3,0.2
	c2.1,0,3.9-0.3,5.5-1.8c1.6-1.6,2.9-4.2,4.3-6.5c3.6-6.3,5.5-7.8,8.9-7.8c0.3,0,1.3,0.2,1.8,0.5c0.2,0.1,0.4,0.5,0.4,0.6
	c0,1.1-0.6,3.6-1.1,4.5c-0.1,0.2-0.4,0.3-0.5,0.3c-1-0.4-2.5-1-3.4-1c-1,0-1.9,0.5-4,4.1c-2.2,3.9-3.5,5.8-5.2,7.2
	c-0.1,0.1-0.1,0.3,0.1,0.4c1.1,0.5,2.3,2,4.7,5.3c1.1,1.4,3.5,4.6,4.9,6.3c2.2,2.7,3.3,3.4,8.1,3.9c0.2,0.1,0.1,2.1-0.2,2.1
	c-1.2,0.2-6.4,0.1-7.4-0.1c-2.1-0.3-2.6-0.8-3.5-1.5c-2.2-1.8-4.1-4.8-8.5-11.3c-1.9-2.8-3.6-3.1-5-3.1c-0.1,0-0.2,0.1-0.2,0.2
	c0,2.7,0,8.1,0.1,10.4c0.1,1.8,0.4,2.4,1.8,2.7c0.6,0.2,2,0.4,3.2,0.5c0.3,0.2,0.2,1.9-0.1,2.1c-1.2-0.1-4.6-0.2-7.3-0.2
	c-2.5,0-5.9,0.1-7.5,0.2c-0.3-0.2-0.4-1.8-0.2-2.1C254.9,90.5,255.5,90.3,256.2,90.2z"/>
<g>
	<path class="st2" d="M2.5,163.6c2.1-0.4,2.5-0.6,2.6-3.4c0.1-2.5,0.1-8.9,0.1-11.6c0-3.3,0.1-8.6-0.1-10.8
		c-0.1-1.4-0.3-2.2-1.8-2.6c-0.7-0.2-1.8-0.3-2.9-0.5c-0.3-0.3-0.2-1.9,0.2-2.1c1.1,0,4.1,0.2,6.9,0.2c2.9,0,6.5-0.2,7.5-0.2
		c0.3,0.2,0.3,1.9-0.1,2.1c-1.1,0.2-1.5,0.3-2.2,0.4c-1.7,0.3-2.4,1-2.4,2.9c-0.1,2.1-0.1,6.4-0.1,9.5c0,0.1,0.1,0.2,0.3,0.2
		c2.1,0,3.9-0.3,5.5-1.8c1.6-1.6,2.9-4.2,4.3-6.5c3.6-6.3,5.5-7.8,8.9-7.8c0.3,0,1.3,0.2,1.8,0.5c0.2,0.1,0.4,0.5,0.4,0.6
		c0,1.1-0.6,3.6-1.1,4.5c-0.1,0.2-0.4,0.3-0.5,0.3c-1-0.4-2.5-1-3.4-1c-1,0-1.9,0.5-4,4.1c-2.2,3.9-3.5,5.8-5.2,7.2
		c-0.1,0.1-0.1,0.3,0.1,0.4c1.1,0.5,2.3,2,4.7,5.3c1.1,1.4,3.5,4.6,4.9,6.3c2.2,2.7,3.3,3.4,8.1,3.9c0.2,0.1,0.1,2.1-0.2,2.1
		c-1.2,0.2-6.4,0.1-7.4-0.1c-2.1-0.3-2.6-0.8-3.5-1.5c-2.2-1.8-4.1-4.8-8.5-11.3c-1.9-2.8-3.6-3.1-5-3.1c-0.1,0-0.2,0.1-0.2,0.2
		c0,2.7,0,8.1,0.1,10.4c0.1,1.8,0.4,2.4,1.8,2.7c0.6,0.2,2,0.4,3.2,0.5c0.3,0.2,0.2,1.9-0.1,2.1C14,166,10.6,166,7.8,166
		c-2.5,0-5.9,0.1-7.5,0.2c-0.3-0.2-0.4-1.8-0.2-2.1C1.2,163.8,1.8,163.7,2.5,163.6z"/>
	<path class="st2" d="M42.2,162.2c-3.3-3.6-4.7-8-4.7-13.1c0-4.1,1.2-7.6,3.6-10.6c2.9-3.9,8.8-6.6,14.5-6.6
		c11.1,0,16.7,8,16.7,16.7c0,5-1.1,8.4-3.4,11.4c-3.5,4.6-9,7-14.3,7C49.1,166.9,45.1,165.2,42.2,162.2z M62.1,162.3
		c3.3-2.5,4.4-6.8,4.4-11.7c0-6-2-11.4-6.1-14.1c-1.9-1.2-4.1-1.9-6.8-1.9c-1.7,0-3.2,0.4-4.5,1.1c-3.8,2.1-5.7,6.8-5.7,12.2
		c0,5.8,2.2,11.7,6.8,14.5c1.9,1.1,3.8,1.6,6.4,1.6C58.8,164,60.8,163.4,62.1,162.3z"/>
	<path class="st2" d="M88.6,151.3c-0.1-0.4,0.1-0.6,0.2-0.7c0.5,0.1,1.4,0.2,2,0.2c1.6,0,2.6-0.3,3.7-0.8c2.4-1.3,3.4-3.6,3.4-6.6
		c0-5-2.7-8.2-8.4-8.2c-0.5,0-2.1,0.1-2.4,0.3c-0.2,0.1-0.4,0.4-0.4,0.8c-0.1,1.2-0.2,2.8-0.2,12.8c0,8.4,0.1,10.5,0.2,12.2
		c0.2,1.3,0.4,1.8,1.9,2.2c0.9,0.2,2.1,0.4,3.7,0.5c0.3,0.3,0.2,1.9-0.1,2.1c-1.7,0-5.9-0.2-8-0.2c-2.5,0-6.3,0.2-7.4,0.2
		c-0.3-0.3-0.3-1.8-0.1-2.1c1.2-0.2,2.4-0.3,3.1-0.5c1.4-0.4,1.4-1.4,1.6-3c0.1-1.9,0.1-7.2,0.1-11.5c0-8.1,0-9.4-0.1-11.2
		c-0.1-1.9-0.5-2.4-2.2-2.7c-0.7-0.2-1.6-0.3-2.7-0.4c-0.2-0.4-0.1-1.8,0.2-2.1c0.7,0,4,0.2,6.6,0.2c3.6,0,6.2-0.1,9.5-0.1
		c1.9,0,5.2,0.3,7.4,2.1c1.9,1.5,3.4,3.9,3.4,7.5c0,5-3.2,8.1-5.9,9.5c-2,1.1-4.2,1.3-5.9,1.3c-1,0-1.6-0.1-2.3-0.3
		C89,152.7,88.7,151.7,88.6,151.3z"/>
	<path class="st2" d="M112.6,162.2c-3.3-3.6-4.7-8-4.7-13.1c0-4.1,1.2-7.6,3.6-10.6c2.9-3.9,8.8-6.6,14.5-6.6
		c11.1,0,16.7,8,16.7,16.7c0,5-1.1,8.4-3.4,11.4c-3.5,4.6-9,7-14.3,7C119.5,166.9,115.5,165.2,112.6,162.2z M132.5,162.3
		c3.3-2.5,4.4-6.8,4.4-11.7c0-6-2-11.4-6.1-14.1c-1.9-1.2-4.1-1.9-6.8-1.9c-1.7,0-3.2,0.4-4.5,1.1c-3.8,2.1-5.7,6.8-5.7,12.2
		c0,5.8,2.2,11.7,6.8,14.5c1.9,1.1,3.8,1.6,6.4,1.6C129.1,164,131.2,163.4,132.5,162.3z"/>
	<path class="st2" d="M151.7,158.8c2.4-5.6,7.5-19.1,8.7-22.5c0.4-1.2,0.9-2.6,1.1-3.5c0.3,0.1,1,0.1,2,0.1c1.3,0,1.9,0,2.1-0.1
		c0.2,1.1,0.6,2.1,1,3.2c1.1,3,7,18.6,9.1,23.4c1.7,3.8,2.1,4.1,6.2,4.7c0.3,0.2,0.2,1.9-0.1,2.1c-1.4-0.1-4-0.2-7-0.2
		c-3.2,0-6.7,0.2-7.8,0.2c-0.3-0.3-0.3-1.9,0-2.1c1-0.1,2.4-0.3,3.2-0.6c0.6-0.3,0.7-1,0.6-1.3c-0.5-1.9-6.1-17.1-8.4-22.9
		c-0.1-0.1-0.2-0.1-0.3,0c-2.3,6.3-5.9,16.4-7.5,21.4c-0.5,1.7-0.3,2.5,1.5,2.9c0.7,0.2,1.9,0.3,2.8,0.4c0.3,0.3,0.2,1.9-0.2,2.1
		c-1.1,0-3.9-0.2-7.4-0.2c-3.5,0-5.2,0.2-6.3,0.2c-0.2-0.3-0.3-1.9,0-2.1C149,163.4,149.8,163.1,151.7,158.8z"/>
	<path class="st2" d="M183.9,132.6c1.4,0,5,0.2,8,0.2h10.8c2.1,0,4.9-0.1,6.2-0.2c0.1,0.1,0.3,0.2,0.3,0.3c-0.4,1.5-0.9,5.4-0.9,7.7
		c-0.3,0.4-2.1,0.3-2.4,0.1c-0.1-1.5-0.3-2.2-0.6-3.2c-0.4-1.3-1-1.8-2.5-1.9c-0.8-0.1-7.8-0.1-8.3,0c-0.4,0.1-0.7,0.9-0.7,1.2
		c0,3.7-0.1,6.9-0.1,10.4c0,0.1,0.2,0.4,0.3,0.4c2.8,0,5.9,0.1,8-0.2c0.8-0.1,1.2-0.6,1.5-1.4c0.2-0.6,0.4-1.5,0.6-2.4
		c0.5-0.2,2.2-0.1,2.5,0.2c-0.1,1.2-0.4,3.3-0.4,5.3c0,1.8,0.1,3.6,0.1,5.2c-0.3,0.3-2.2,0.3-2.5,0c-0.3-1.3-0.3-1.8-0.5-2.5
		c-0.2-0.8-0.7-1.2-1.5-1.3c-1.8-0.2-5.3-0.2-7.8-0.2c-0.2,0-0.3,0.2-0.3,0.4c0,3.5,0,7.7,0.1,9.8c0,0.9,0.5,1.9,1.2,2.1
		c1.1,0.3,7.9,0.3,9,0.3c1.4,0,2.2-0.4,3.4-2c0.9-1.1,1.9-3.3,2.5-4.6c0.4-0.1,2,0.4,2.2,0.8c-0.3,1.8-1.4,5.8-2.4,7.7
		c-0.3,0.6-0.7,1.1-3.4,1.1c-5.7,0-10.9-0.2-14.8-0.2c-3.6,0-7.2,0.2-9.5,0.2c-0.3-0.2-0.3-1.8-0.1-2.1c1.9-0.2,3.6-0.4,4.6-0.6
		c1.3-0.3,1.7-1,1.8-2.7c0.1-0.9,0.1-6.5,0.1-12.5c0-4.7,0-9.3-0.1-10.2c-0.1-1.8-0.3-2.2-1.6-2.6c-0.7-0.2-1.8-0.4-3.2-0.6
		C183.5,134.4,183.6,132.9,183.9,132.6z"/>
	<path class="st2" d="M212.8,132.6c0.5,0,2.7,0.2,6.3,0.2c3.4,0,6.2-0.1,9.5-0.1c4.1,0,9.8,1.5,9.8,7.7c0,3.1-2.1,5.5-4.9,6.7
		c-0.2,0.1-0.2,0.2,0,0.2c4,1,7.4,3.5,7.4,8.2c0,4.6-2.8,7.5-7,9.3c-2.5,1.1-5.6,1.5-8.8,1.5c-2.4,0-9.6-0.3-13.2-0.2
		c-0.4-0.2-0.4-1.9-0.1-2.1c0.9-0.1,2.8-0.2,3.7-0.5c1.3-0.3,1.7-0.6,1.9-2.6c0.1-1.7,0.1-7.6,0.1-11.8c0-5.8,0.1-9.7,0-11.6
		c-0.1-1.5-0.6-2-1.6-2.2c-0.8-0.2-2.1-0.3-3.2-0.5C212.5,134.5,212.6,132.9,212.8,132.6z M235.4,156.7c0-4.7-3.4-7.4-9.7-7.4
		c-0.3,0-2.2-0.1-2.7,0.1c-0.2,0.1-0.3,0.2-0.3,0.3c0,3.4-0.1,8.8,0.1,10.9c0.1,0.9,0.7,2.2,1.6,2.6c0.9,0.5,2.8,0.6,4.1,0.6
		C232.2,163.7,235.4,161.6,235.4,156.7z M223.3,135.3c-0.2,0.1-0.5,0.6-0.5,0.9c-0.1,1.9-0.1,7-0.1,10.4c0,0.1,0.2,0.3,0.3,0.3
		c0.7,0.1,2.4,0.1,3.9,0.1c2,0,3.2-0.3,3.9-0.6c1.7-0.9,2.5-2.7,2.5-4.8c0-4.7-3.2-6.4-8-6.4C224.9,135.2,224,135.2,223.3,135.3z"/>
	<path class="st2" d="M267.9,135.4c-1.7-0.8-4.1-1.1-6.5-1.1c-7.6,0-11.6,5.7-11.6,14.4c0,7.3,4.1,15.2,13.9,15.2
		c2.9,0,4.8-1,5.6-1.5c1.2-0.9,2.8-3.1,4.3-5.6c0.4-0.1,1.6,0.6,1.8,1.1c-0.4,2-2.9,6.5-4.2,7.4c-1.5,0.6-5.3,1.5-8.6,1.5
		c-12.3,0-18.9-6.7-18.9-17.7c0-5.8,2.7-11.7,8.6-14.9c2.9-1.6,6.4-2.5,10.8-2.5c5.1,0,8.7,1,11.2,1.1c-0.3,2.1-0.7,6.2-0.8,8.7
		c-0.3,0.3-2.1,0.5-2.2,0.2C270.7,137.5,270.1,136.5,267.9,135.4z"/>
	<path class="st2" d="M282.6,163.6c2.1-0.4,2.5-0.6,2.6-3.4c0.1-2.5,0.1-8.9,0.1-11.6c0-3.3,0.1-8.6-0.1-10.8
		c-0.1-1.4-0.3-2.2-1.8-2.6c-0.7-0.2-1.8-0.3-2.9-0.5c-0.3-0.3-0.2-1.9,0.2-2.1c1.1,0,4.1,0.2,6.9,0.2c2.9,0,6.5-0.2,7.5-0.2
		c0.3,0.2,0.3,1.9-0.1,2.1c-1.1,0.2-1.5,0.3-2.2,0.4c-1.7,0.3-2.4,1-2.4,2.9c-0.1,2.1-0.1,6.4-0.1,9.5c0,0.1,0.1,0.2,0.3,0.2
		c2.1,0,3.9-0.3,5.5-1.8c1.6-1.6,2.9-4.2,4.3-6.5c3.6-6.3,5.5-7.8,8.9-7.8c0.3,0,1.3,0.2,1.8,0.5c0.2,0.1,0.4,0.5,0.4,0.6
		c0,1.1-0.6,3.6-1.1,4.5c-0.1,0.2-0.4,0.3-0.5,0.3c-1-0.4-2.5-1-3.4-1c-1,0-1.9,0.5-4,4.1c-2.2,3.9-3.5,5.8-5.2,7.2
		c-0.1,0.1-0.1,0.3,0.1,0.4c1.1,0.5,2.3,2,4.7,5.3c1.1,1.4,3.5,4.6,4.9,6.3c2.2,2.7,3.3,3.4,8.1,3.9c0.2,0.1,0.1,2.1-0.2,2.1
		c-1.2,0.2-6.4,0.1-7.4-0.1c-2.1-0.3-2.6-0.8-3.5-1.5c-2.2-1.8-4.1-4.8-8.5-11.3c-1.9-2.8-3.6-3.1-5-3.1c-0.1,0-0.2,0.1-0.2,0.2
		c0,2.7,0,8.1,0.1,10.4c0.1,1.8,0.4,2.4,1.8,2.7c0.6,0.2,2,0.4,3.2,0.5c0.3,0.2,0.2,1.9-0.1,2.1c-1.2-0.1-4.6-0.2-7.3-0.2
		c-2.5,0-5.9,0.1-7.5,0.2c-0.3-0.2-0.4-1.8-0.2-2.1C281.3,163.8,282,163.7,282.6,163.6z"/>
	<path class="st2" d="M321.2,163.4c1.6-0.4,1.9-1.2,2-3.6c0-1.9,0.1-5.6,0.1-10.3c0-5.2-0.1-10.7-0.1-11.7c-0.1-1.3-0.3-2-1.5-2.4
		c-0.9-0.3-2-0.5-3.6-0.6c-0.2-0.4-0.2-1.8,0.1-2.1c2,0,3.7,0.2,7.3,0.2c3.2,0,5.9-0.2,7.4-0.2c0.3,0.3,0.3,1.9-0.1,2.1
		c-1.2,0.2-2.2,0.3-2.9,0.5c-1.1,0.3-1.4,0.9-1.4,2.4c-0.1,1.8-0.1,12.7-0.1,18.2c0.1,0.2,0.3,0.2,0.4,0.1
		c1.2-1.2,14-13.7,17.2-17.5c0.1-0.1,0.3-0.4,0.3-0.6c0.1-0.3,0-0.5,0-0.8c-0.1-0.8-0.4-1.4-1.1-1.7c-0.7-0.3-1.8-0.4-3.5-0.6
		c-0.3-0.3-0.3-1.9,0.1-2.1c1.1,0,4.2,0.2,7.1,0.2c2.8,0,6.2-0.2,7.4-0.2c0.2,0.3,0.3,1.9,0,2.1c-1.2,0.2-2.4,0.3-3.1,0.5
		c-1.2,0.5-1.3,1.2-1.4,2.9c-0.1,1.9-0.1,4.3-0.1,10.4c0,4.8,0,10.5,0.2,12.3c0.1,1.5,0.6,2.1,1.6,2.4c0.8,0.2,2.1,0.5,3.9,0.6
		c0.2,0.3,0.1,2-0.3,2.1c-1.1,0-3.1-0.2-8-0.2c-3,0-5.9,0.1-7.3,0.2c-0.3-0.2-0.3-1.9,0-2.1c1.4-0.2,2.7-0.4,3.4-0.6
		c0.9-0.3,1.3-1.1,1.4-2.4c0.1-2.2,0.1-15.3,0.1-18.6c0-0.1-0.2-0.5-0.4-0.2c-0.2,0.3-16.7,16.9-17.1,17.2c-0.4,0.4-0.5,0.8-0.5,1.2
		c0,1.5,0.3,2.4,1.7,2.7c0.8,0.2,2.1,0.5,3.7,0.7c0.3,0.3,0.1,1.9-0.2,2.1c-2.4-0.1-5.1-0.2-7.8-0.2c-2.6,0-6.6,0.1-7.8,0.2
		c-0.2-0.3-0.3-1.9-0.1-2.1C319.4,163.8,320.4,163.7,321.2,163.4z"/>
	<path class="st2" d="M365.7,163.4c1.6-0.4,1.9-1.2,2-3.6c0-1.9,0.1-5.6,0.1-10.3c0-5.2-0.1-10.7-0.1-11.7c-0.1-1.3-0.3-2-1.5-2.4
		c-0.9-0.3-2-0.5-3.6-0.6c-0.2-0.4-0.2-1.8,0.1-2.1c2,0,3.7,0.2,7.3,0.2c3.2,0,5.9-0.2,7.4-0.2c0.3,0.3,0.3,1.9-0.1,2.1
		c-1.2,0.2-2.2,0.3-2.9,0.5c-1.1,0.3-1.4,0.9-1.4,2.4c-0.1,1.8-0.1,12.7-0.1,18.2c0.1,0.2,0.3,0.2,0.4,0.1
		c1.2-1.2,14-13.7,17.2-17.5c0.1-0.1,0.3-0.4,0.3-0.6c0.1-0.3,0-0.5,0-0.8c-0.1-0.8-0.4-1.4-1.1-1.7c-0.7-0.3-1.8-0.4-3.5-0.6
		c-0.3-0.3-0.3-1.9,0.1-2.1c1.1,0,4.2,0.2,7.1,0.2c2.8,0,6.2-0.2,7.4-0.2c0.2,0.3,0.3,1.9,0,2.1c-1.2,0.2-2.4,0.3-3.1,0.5
		c-1.2,0.5-1.3,1.2-1.4,2.9c-0.1,1.9-0.1,4.3-0.1,10.4c0,4.8,0,10.5,0.2,12.3c0.1,1.5,0.6,2.1,1.6,2.4c0.8,0.2,2.1,0.5,3.9,0.6
		c0.2,0.3,0.1,2-0.3,2.1c-1.1,0-3.1-0.2-8-0.2c-3,0-5.9,0.1-7.3,0.2c-0.3-0.2-0.3-1.9,0-2.1c1.4-0.2,2.7-0.4,3.4-0.6
		c0.9-0.3,1.3-1.1,1.4-2.4c0.1-2.2,0.1-15.3,0.1-18.6c0-0.1-0.2-0.5-0.4-0.2c-0.2,0.3-16.7,16.9-17.1,17.2c-0.4,0.4-0.5,0.8-0.5,1.2
		c0,1.5,0.3,2.4,1.7,2.7c0.8,0.2,2.1,0.5,3.7,0.7c0.3,0.3,0.1,1.9-0.2,2.1c-2.4-0.1-5.1-0.2-7.8-0.2c-2.6,0-6.6,0.1-7.8,0.2
		c-0.2-0.3-0.3-1.9-0.1-2.1C364,163.8,364.9,163.7,365.7,163.4z M377.1,123c0.9,2.3,2.1,3.7,5.4,3.7c1.9,0,4.1-0.4,5.8-2.8
		c0.1-0.2,2-1,2.1-1c0.3,0.1,0.5,0.2,0.5,0.4c-1,3.7-4.8,7-10,7c-3.5,0-7-1.6-7-4.6c0-0.9,1.3-2.2,2.2-2.8
		C376.4,122.8,377,122.8,377.1,123z"/>
	<path class="st2" d="M421.3,162.9c0.6-0.1,1.1-1,1.3-1.4c1-1.9,6.3-15.6,9.3-23.7c0.5-1.2,1.3-3.6,1.6-4.9c0.3,0,0.9,0.1,1.8,0.1
		c1,0,1.6-0.1,1.8-0.1c0.1,0.6,0.3,1.2,0.8,2.5c2.5,6.5,9,23.6,10.6,27c0.1,0.2,0.5,0.6,0.8,0.6c1,0,2.8-0.1,3.5-0.1
		c0.1,0.1,0.2,0.3,0.2,0.4c-1.1,3.1-2.2,8.4-2.8,12.2c-0.2,0.3-2.2,0.4-2.5,0.2c-0.2-3.4-0.6-7.5-1.2-8.8c0,0-0.4-0.7-1.2-0.7h-20
		c-0.3,0-0.9,0.3-1,0.5c-0.9,1.7-1.6,6.1-1.9,8.8c-0.1,0.3-2.3,0.4-2.5,0.3c-0.2-3.4-1.3-10.1-1.8-12.4
		C419.4,163.1,420.3,163,421.3,162.9z M433.9,140.2c-0.8,2.2-7.1,19.4-7.9,22.1c-0.1,0.3,0.2,0.6,0.4,0.6c2.4,0.2,13.4,0.2,15.9,0.1
		c0.2,0,0.3-0.4,0.2-0.6c-0.2-1.1-7.3-19.8-8.3-22.1C434.1,140.1,433.9,140.1,433.9,140.2z"/>
	<path class="st2" d="M459.8,162.2c-3.3-3.6-4.7-8-4.7-13.1c0-4.1,1.2-7.6,3.6-10.6c2.9-3.9,8.8-6.6,14.5-6.6
		c11.1,0,16.7,8,16.7,16.7c0,5-1.1,8.4-3.4,11.4c-3.5,4.6-9,7-14.3,7C466.7,166.9,462.7,165.2,459.8,162.2z M479.7,162.3
		c3.3-2.5,4.4-6.8,4.4-11.7c0-6-2-11.4-6.1-14.1c-1.9-1.2-4.1-1.9-6.8-1.9c-1.7,0-3.2,0.4-4.5,1.1c-3.8,2.1-5.7,6.8-5.7,12.2
		c0,5.8,2.2,11.7,6.8,14.5c1.9,1.1,3.8,1.6,6.4,1.6C476.3,164,478.4,163.4,479.7,162.3z"/>
	<path class="st2" d="M495.6,132.6c2.3,0,5,0.2,10.7,0.2c0.2,1.2,0.4,1.9,1,3.2c2.6,5.6,9,19.1,10,20.7c0.1,0.1,0.2,0.1,0.3-0.1
		c0.9-1.7,7.8-15.9,10.1-21.2c0.4-1.2,0.7-1.9,0.9-2.7c5.6,0,8-0.2,10.5-0.2c0.3,0.2,0.3,1.8,0,2.1c-1.7,0.3-3,0.4-3.9,0.6
		c-0.7,0.2-1.4,0.7-1.4,2.1c-0.1,3.4,0.3,19.5,0.6,23c0.2,1.9,0.5,2.6,2.2,3.1c0.8,0.2,1.8,0.3,3.2,0.5c0.3,0.4,0.2,1.8-0.1,2.1
		c-1.6,0-4-0.2-7.6-0.2c-3,0-6.3,0.1-7.8,0.2c-0.3-0.4-0.3-1.8,0-2.1c1.2-0.2,2.4-0.4,3.2-0.6c1.2-0.4,1.4-1.3,1.4-2.1
		c0.1-3.6-0.1-16.1-0.1-21.3c-0.1-0.1-0.2-0.2-0.3,0c-1.4,3.3-9.7,20.5-11.7,25.9c-0.2,0.2-1.8,0.2-2.1,0.2
		c-1.3-4.3-8.2-19.7-10.8-25.7c-0.1-0.1-0.3-0.1-0.3,0.2c-0.3,4.9-0.9,14.5-1.1,19.8c0,1.7,0.1,2.5,1.8,3.1c0.9,0.3,2.1,0.5,3.8,0.7
		c0.3,0.3,0.2,1.9-0.2,2.1c-0.9,0-4.2-0.2-7.2-0.2c-3.1,0-5.9,0.2-6.9,0.2c-0.3-0.3-0.3-1.8,0-2.1c1.3-0.2,2.2-0.3,3.1-0.5
		c1.6-0.5,1.9-1.2,2.2-3.4c0.6-4.6,1.6-17,2-22.3c0-1-0.4-1.9-1.4-2.2c-0.9-0.3-2-0.5-4-0.8C495.2,134.5,495.3,132.8,495.6,132.6z"
		/>
</g>
<g>
	<path class="st0" d="M186.8,190.6c0.5-0.1,0.5-0.2,0.6-0.8c0-0.5,0-2.1,0-3.2c0-1,0-1.9,0-2.8c0-0.4-0.1-0.6-0.5-0.7
		c-0.3-0.1-0.5-0.1-0.9-0.1c-0.1-0.2-0.1-0.8,0.1-0.9c0.3,0,1.3,0.1,2.3,0.1h6.1c1,0,2.2,0,2.5-0.1c0.1,0.1,0.1,0.8,0,0.9
		c-0.1,0-0.6,0.1-0.9,0.2c-0.4,0.1-0.5,0.2-0.5,0.6v2.8c0,1.3,0,2.6,0,3.2c0,0.6,0.2,0.8,0.7,0.9l0.9,0.2c0.1,0.1,0,0.8-0.1,0.9
		c-0.7,0-1.5-0.1-2.3-0.1c-0.8,0-2.2,0.1-2.3,0.1c-0.2,0-0.2-0.8-0.1-0.9c0.3,0,0.6-0.1,0.7-0.2c0.3-0.2,0.4-0.4,0.4-0.5
		c0-0.7,0-2.3,0-3.5c0-0.8,0-2.8-0.1-3.1c0-0.1,0-0.2-0.1-0.2h-3.7c-0.1,0-0.1,0.1-0.2,0.4c0,0.2,0,1.7,0,2.7c0,1.3,0,3.1,0,3.5
		c0,0.5,0.2,0.7,0.7,0.8l0.8,0.1c0.1,0.1,0,0.8-0.1,0.9c-0.3,0-1.5-0.1-2.5-0.1c-1.3,0-2,0.1-2.3,0.1c-0.2-0.1-0.1-0.8,0-0.9
		C186.3,190.7,186.6,190.6,186.8,190.6z"/>
	<path class="st0" d="M208.6,186.5c0,1.9-0.8,3.5-2.2,4.4c-0.7,0.4-1.9,0.9-2.9,0.9c-3.6,0-4.9-2.7-4.9-5.2c0-1.9,0.9-3.2,2.1-4.1
		c0.9-0.5,2.1-1,3.2-1C206.8,181.7,208.6,183.8,208.6,186.5z M202,183.1c-0.6,0.4-1.2,1.2-1.2,2.9c0,2.8,1.4,4.6,3.3,4.6
		c0.5,0,1-0.1,1.4-0.5c0.5-0.4,0.9-1.4,0.9-2.9c0-2.8-1.4-4.5-3.3-4.5C202.7,182.8,202.3,182.9,202,183.1z"/>
	<path class="st0" d="M215.2,191.9c-1.6,0-2.8-0.6-3.6-1.7c-0.6-0.9-0.9-2-0.9-3.2c0-1.8,0.9-3.3,2.5-4.3c1.1-0.7,2.4-1,3.1-1
		c1,0,1.7,0.2,2.1,0.4c0.4,0.2,0.6,0.4,0.7,0.6c0,0.1,0,0.3,0,0.4c-0.2,0.4-0.7,1-0.9,1.1c0,0-0.2,0-0.2,0c-0.6-0.5-1.5-1.3-2.7-1.3
		c-1.8,0-2.5,1.6-2.5,3.1c0,1,0.3,2.1,0.9,2.8c0.6,0.8,1.5,1.2,2.6,1.2c0.9,0,1.8-0.2,2.8-1.2c0,0,0.2,0.1,0.2,0.2
		c0,0.3-0.1,0.8-0.2,0.9C218,191.4,216.3,191.9,215.2,191.9z"/>
	<path class="st0" d="M223.3,190.5c0.6-0.1,0.7-0.5,0.7-1.3c0-1.8,0-3.1,0-6c0-0.1,0-0.2-0.1-0.2c-0.3,0-0.9,0-1.2,0
		c-0.2,0-0.4,0.2-0.6,0.4c-0.2,0.4-0.6,1.1-0.9,1.8c-0.1,0.1-0.9-0.1-1-0.2c0.2-0.7,0.4-2.4,0.4-3.1c0-0.1,0.4-0.1,0.4-0.1
		c0.3,0.1,0.6,0.2,1.4,0.2h5.3c0.7,0,1.3-0.1,1.8-0.3c0.1,0,0.3,0.1,0.4,0.1c-0.2,0.7-0.4,2.4-0.4,3.3c-0.1,0.2-0.9,0.2-1,0
		c0-0.5-0.3-1.3-0.4-1.6c0-0.2-0.3-0.5-0.6-0.5c-0.3,0-1.1,0-1.4,0c-0.1,0-0.1,0.1-0.1,0.2c0,2.5,0,5.6,0,6.5c0,0.3,0.1,0.6,0.6,0.7
		c0.3,0.1,0.6,0.1,1.4,0.2c0.1,0.1,0,0.9-0.1,0.9c-0.9,0-2.4-0.1-3.1-0.1c-0.7,0-2.1,0.1-2.7,0.1c-0.1-0.1-0.1-0.8,0-0.9
		C222.6,190.7,223,190.6,223.3,190.5z"/>
	<path class="st0" d="M239.6,189.3c0,0.2-0.1,0.7-0.2,0.9c-1,1.1-2.8,1.7-3.9,1.7c-1.3,0-2.2-0.4-3-1.1c-1-1-1.5-2.5-1.5-3.9
		c0-2.2,0.9-3.6,2.2-4.4c0.8-0.5,1.8-0.8,2.7-0.8c2.4,0,3.3,2,3.5,3.5c0,0.1,0.2,0.2,0.4,0.3c0,0.1-0.2,0.7-0.3,0.8
		c-1,0.3-4.2,0.4-6.3,0.5c-0.1,0-0.1,0.1-0.1,0.3c0,0.7,0.4,1.6,1,2.2c0.7,0.6,1.4,0.9,2.5,0.9c1,0,1.9-0.3,2.8-1
		C239.5,189.1,239.5,189.2,239.6,189.3z M233.1,185.4c0,0,0,0.2,0.2,0.2c0.9,0,3.5-0.1,3.9-0.2c0.1,0,0.1-0.1,0.1-0.2
		c-0.1-1.2-0.9-2.4-2.2-2.4C234,182.8,233.2,183.9,233.1,185.4z"/>
	<path class="st0" d="M241.9,189.7c0.5-1.1,1.7-4,2.4-5.8c0.2-0.5,0.2-0.7,0-1.2c0,0,0-0.1,0.1-0.2c0.4-0.3,1.4-0.9,1.6-0.9
		c0.1,0,0.2,0.1,0.2,0.2c0.9,2.2,2.6,6.6,3.2,7.8c0.4,0.9,0.6,0.9,1.9,1.2c0.1,0.1,0,0.9-0.1,0.9c-0.7,0-1.9-0.1-2.6-0.1
		c-0.7,0-1.7,0-2.1,0.1c-0.1,0-0.1-0.8-0.1-0.9c0.3-0.1,0.6-0.2,0.8-0.3c0.1,0,0.2-0.3,0.1-0.5c-0.5-1.3-1.6-3.8-2.1-5.1
		c0-0.1-0.1,0-0.2,0c-0.3,0.8-1.3,3.6-1.5,4.2c-0.3,1-0.2,1.2,0.2,1.3c0.2,0.1,0.5,0.1,0.9,0.2c0.1,0.1,0,0.9-0.1,0.9
		c-0.4,0-1.7-0.1-2.3-0.1c-0.7,0-1.5,0.1-2,0.1c-0.1-0.1-0.1-0.9,0-0.9C241.5,190.5,241.6,190.4,241.9,189.7z"/>
	<path class="st0" d="M252.6,190.6c0.6-0.1,0.6-0.4,0.7-0.9c0-0.9,0-2.2,0-3.5c0-1.1,0-2.2,0-2.5c0-0.4-0.1-0.6-0.5-0.7
		c-0.3-0.1-0.5-0.1-0.9-0.1c-0.1-0.2,0-0.9,0.1-0.9c0.3,0,0.9,0.1,2.2,0.1c1.5,0,2.2-0.1,2.4-0.1c0.1,0.1,0.1,0.8,0,0.9
		c-0.4,0-0.5,0.1-0.8,0.1c-0.3,0.1-0.5,0.2-0.5,0.8l0,1.6c0.5,0,1.4-0.1,2-0.1c1.6,0,3.4,0.9,3.4,3c0,1.2-0.7,2.3-1.7,2.8
		c-0.7,0.4-1.8,0.6-2.9,0.6c-1.4,0-2.7,0-4.2,0c-0.1-0.1-0.1-0.8,0-0.9L252.6,190.6z M255.2,189.9c0,0.4,0.6,0.9,1.2,0.9
		c1.2,0,2.1-0.8,2.1-2.2c0-1.6-1.1-2.4-3.3-2.4C255.2,187.1,255.2,189,255.2,189.9z"/>
	<path class="st0" d="M262.6,190.6c0.5-0.1,0.7-0.2,0.7-0.9v-3.1c0-1,0-2.2,0-2.8c0-0.4-0.1-0.6-0.5-0.7c-0.3-0.1-0.5-0.1-0.9-0.1
		c-0.1-0.1,0-0.9,0.1-0.9c0.3,0,0.9,0.1,2.2,0.1c1.5,0,2.2-0.1,2.4-0.1c0.1,0.1,0.2,0.8,0,0.9c-0.4,0-0.5,0.1-0.8,0.1
		c-0.3,0.1-0.5,0.2-0.5,0.6v2.3c0,0,0.1,0.1,0.1,0.1c0.4,0,1.2,0,1.9,0c0.9,0,1.8,0,2.1,0c0,0,0.1,0,0.1-0.1c0-0.5,0-2.1,0-2.2
		c0-0.3-0.1-0.6-0.5-0.7l-0.9-0.2c0-0.2,0-0.9,0.1-0.9c0.4,0,1.2,0.1,2.4,0.1c1.2,0,1.9-0.1,2.4-0.1c0.1,0.2,0.1,0.8,0,0.9
		c-0.1,0-0.7,0.1-0.9,0.2c-0.4,0.1-0.5,0.3-0.5,0.7c0,0.5,0,1.7,0,2.8c0,1.4,0,2.6,0,3.2c0,0.6,0.3,0.8,0.8,0.9l0.9,0.2
		c0.1,0.1,0,0.8-0.1,0.9c-0.7,0-1.4-0.1-2.5-0.1c-0.9,0-2.2,0-2.4,0.1c-0.1-0.1-0.1-0.9,0-0.9c0.3,0,0.5-0.1,0.7-0.1
		c0.5-0.1,0.6-0.4,0.6-0.7c0-0.6,0-1.9,0-2.6c0,0,0-0.1-0.1-0.1h-4c0,0-0.1,0.1-0.1,0.1v2.5c0,0.5,0.3,0.7,0.7,0.8l0.7,0.1
		c0,0.1,0,0.8-0.1,0.9c-0.3,0-1-0.1-2.5-0.1c-1.1,0-2,0.1-2.3,0.1c-0.1-0.1-0.1-0.9,0-0.9C262,190.7,262.3,190.7,262.6,190.6z"/>
	<path class="st0" d="M284.7,186.5c0,1.9-0.8,3.5-2.2,4.4c-0.7,0.4-1.9,0.9-2.9,0.9c-3.6,0-4.9-2.7-4.9-5.2c0-1.9,0.9-3.2,2.1-4.1
		c0.9-0.5,2.1-1,3.2-1C283,181.7,284.7,183.8,284.7,186.5z M278.1,183.1c-0.6,0.4-1.2,1.2-1.2,2.9c0,2.8,1.4,4.6,3.3,4.6
		c0.5,0,1-0.1,1.4-0.5c0.5-0.4,0.9-1.4,0.9-2.9c0-2.8-1.4-4.5-3.3-4.5C278.8,182.8,278.4,182.9,278.1,183.1z"/>
	<path class="st0" d="M295.3,189.3c0,0.2-0.1,0.7-0.2,0.9c-1,1.1-2.8,1.7-3.9,1.7c-1.3,0-2.2-0.4-3-1.1c-1-1-1.5-2.5-1.5-3.9
		c0-2.2,0.9-3.6,2.2-4.4c0.8-0.5,1.8-0.8,2.7-0.8c2.4,0,3.3,2,3.5,3.5c0,0.1,0.2,0.2,0.4,0.3c0,0.1-0.2,0.7-0.3,0.8
		c-1,0.3-4.2,0.4-6.3,0.5c-0.1,0-0.1,0.1-0.1,0.3c0,0.7,0.4,1.6,1,2.2c0.7,0.6,1.4,0.9,2.5,0.9c1,0,1.9-0.3,2.8-1
		C295.2,189.1,295.3,189.2,295.3,189.3z M288.9,185.4c0,0,0,0.2,0.2,0.2c0.9,0,3.5-0.1,3.9-0.2c0.1,0,0.1-0.1,0.1-0.2
		c-0.1-1.2-0.9-2.4-2.2-2.4C289.8,182.8,289,183.9,288.9,185.4z"/>
	<path class="st0" d="M310.5,178.4c-0.2,0.1-0.6,0.2-0.9,0.3l-2.1,0.2c-1.7,0.2-2.4,1.7-2.6,3.1c0,0.4-0.1,0.9,0,1.3
		c0,0,0,0.1,0.1,0.1c0.9-0.8,2.2-1.6,3.4-1.6c2.6,0,3.7,2.1,3.7,4.5c0,3.5-2.2,5.6-4.9,5.6c-3.1,0-4.5-2.3-4.5-6.3
		c0-3,1-5.2,2.4-6.7c0.9-0.9,2.3-1.8,3.8-2.2c1.5-0.4,2.3-0.6,2.7-1c0.1,0,0.4,0.2,0.4,0.3C311.9,176.8,311.2,177.9,310.5,178.4z
		 M304.8,185.8c0,0.8,0,1.3,0.2,2.1c0.3,1.6,1.2,2.9,2.7,2.9c1.3,0,2.2-1.1,2.2-3.4c0-1.9-0.3-4.1-2.6-4.1c-0.7,0-1.4,0.4-1.9,0.8
		C305.1,184.4,304.8,184.8,304.8,185.8z"/>
	<path class="st0" d="M322.8,189.3c0,0.2-0.1,0.7-0.2,0.9c-1,1.1-2.8,1.7-3.9,1.7c-1.3,0-2.2-0.4-3-1.1c-1-1-1.5-2.5-1.5-3.9
		c0-2.2,0.9-3.6,2.2-4.4c0.8-0.5,1.8-0.8,2.7-0.8c2.4,0,3.3,2,3.5,3.5c0,0.1,0.2,0.2,0.4,0.3c0,0.1-0.2,0.7-0.3,0.8
		c-1,0.3-4.2,0.4-6.3,0.5c-0.1,0-0.1,0.1-0.1,0.3c0,0.7,0.4,1.6,1,2.2c0.7,0.6,1.4,0.9,2.5,0.9c1,0,1.9-0.3,2.8-1
		C322.7,189.1,322.7,189.2,322.8,189.3z M316.3,185.4c0,0,0,0.2,0.2,0.2c0.9,0,3.5-0.1,3.9-0.2c0.1,0,0.1-0.1,0.1-0.2
		c-0.1-1.2-0.9-2.4-2.2-2.4C317.2,182.8,316.4,183.9,316.3,185.4z"/>
	<path class="st0" d="M325.1,189.7c0.5-1.1,1.7-4,2.4-5.8c0.2-0.5,0.2-0.7,0-1.2c0,0,0-0.1,0.1-0.2c0.4-0.3,1.4-0.9,1.6-0.9
		c0.1,0,0.2,0.1,0.2,0.2c0.9,2.2,2.6,6.6,3.2,7.8c0.4,0.9,0.6,0.9,1.9,1.2c0.1,0.1,0,0.9-0.1,0.9c-0.7,0-1.9-0.1-2.6-0.1
		c-0.7,0-1.7,0-2.1,0.1c-0.1,0-0.1-0.8-0.1-0.9c0.3-0.1,0.6-0.2,0.8-0.3c0.1,0,0.2-0.3,0.1-0.5c-0.5-1.3-1.6-3.8-2.1-5.1
		c0-0.1-0.1,0-0.2,0c-0.3,0.8-1.3,3.6-1.5,4.2c-0.3,1-0.2,1.2,0.2,1.3c0.2,0.1,0.5,0.1,0.9,0.2c0.1,0.1,0,0.9-0.1,0.9
		c-0.4,0-1.7-0.1-2.3-0.1c-0.7,0-1.5,0.1-2,0.1c-0.1-0.1-0.1-0.9,0-0.9C324.7,190.5,324.8,190.4,325.1,189.7z"/>
	<path class="st0" d="M335.8,190.6c0.6-0.1,0.6-0.4,0.7-0.9c0-0.9,0-2.2,0-3.5c0-1.1,0-2.2,0-2.5c0-0.4-0.1-0.6-0.5-0.7
		c-0.3-0.1-0.5-0.1-0.9-0.1c-0.1-0.2,0-0.9,0.1-0.9c0.3,0,0.9,0.1,2.2,0.1c1.5,0,2.2-0.1,2.4-0.1c0.1,0.1,0.1,0.8,0,0.9
		c-0.4,0-0.5,0.1-0.8,0.1c-0.3,0.1-0.5,0.2-0.5,0.8l0,1.6c0.5,0,1.4-0.1,2-0.1c1.6,0,3.4,0.9,3.4,3c0,1.2-0.7,2.3-1.7,2.8
		c-0.7,0.4-1.8,0.6-2.9,0.6c-1.4,0-2.7,0-4.2,0c-0.1-0.1-0.1-0.8,0-0.9L335.8,190.6z M338.4,189.9c0,0.4,0.6,0.9,1.2,0.9
		c1.2,0,2.1-0.8,2.1-2.2c0-1.6-1.1-2.4-3.3-2.4C338.4,187.1,338.4,189,338.4,189.9z"/>
	<path class="st0" d="M354.1,189.3c0,0.2-0.1,0.7-0.2,0.9c-1,1.1-2.8,1.7-3.9,1.7c-1.3,0-2.2-0.4-3-1.1c-1-1-1.5-2.5-1.5-3.9
		c0-2.2,0.9-3.6,2.2-4.4c0.8-0.5,1.8-0.8,2.7-0.8c2.4,0,3.3,2,3.5,3.5c0,0.1,0.2,0.2,0.4,0.3c0,0.1-0.2,0.7-0.3,0.8
		c-1,0.3-4.2,0.4-6.3,0.5c-0.1,0-0.1,0.1-0.1,0.3c0,0.7,0.4,1.6,1,2.2c0.7,0.6,1.4,0.9,2.5,0.9c1,0,1.9-0.3,2.8-1
		C354,189.1,354,189.2,354.1,189.3z M348.7,179.5c-0.1,0.1-1,0.2-1.2,0c-0.4-0.2-0.5-0.5-0.6-1c0-0.1,0-0.7,0.1-0.8
		c0.2-0.2,0.7-0.4,1.1-0.4c0.4,0,0.7,0.1,0.8,0.2c0.1,0.1,0.3,0.5,0.3,0.7C349.2,178.8,349,179.3,348.7,179.5z M347.6,185.4
		c0,0,0,0.2,0.2,0.2c0.9,0,3.5-0.1,3.9-0.2c0.1,0,0.1-0.1,0.1-0.2c-0.1-1.2-0.9-2.4-2.2-2.4C348.5,182.8,347.7,183.9,347.6,185.4z
		 M352.9,179.5c-0.1,0.1-1.1,0.1-1.2,0c-0.4-0.2-0.5-0.4-0.6-1c0-0.1,0-0.7,0.1-0.8c0.2-0.2,0.7-0.4,1.2-0.4c0.4,0,0.7,0.1,0.8,0.2
		c0.1,0.1,0.2,0.5,0.2,0.7C353.4,178.8,353.2,179.3,352.9,179.5z"/>
</g>
<g id="XMLID_14_">
</g>
<g id="XMLID_15_">
</g>
<g id="XMLID_16_">
</g>
<g id="XMLID_17_">
</g>
<g id="XMLID_18_">
</g>
<g id="XMLID_19_">
</g>
</svg>
