<?xml version="1.0" encoding="utf-8"?>
<!-- Generator: Adobe Illustrator 19.0.0, SVG Export Plug-In . SVG Version: 6.00 Build 0)  -->
<svg version="1.1" id="Слой_1" xmlns="http://www.w3.org/2000/svg" xmlns:xlink="http://www.w3.org/1999/xlink" x="0px" y="0px"
	 viewBox="0 0 409.9 410" style="enable-background:new 0 0 409.9 410;" xml:space="preserve" width="28px" height="28px">
<style type="text/css">
	.st0{clip-path:url(#SVGID_2_);}
</style>
<g>
	<g>
		<defs>
			<rect id="SVGID_1_" width="409.9" height="410"/>
		</defs>
		<clipPath id="SVGID_2_">
			<use xlink:href="#SVGID_1_"  style="overflow:visible;"/>
		</clipPath>
		<path class="st0" d="M398.4,344.1l-94-94c-14,21.8-32.5,40.3-54.3,54.3l94,94c15,15,39.3,15,54.3,0
			C413.4,383.4,413.4,359.1,398.4,344.1L398.4,344.1z M398.4,344.1"/>
	</g>
	<path d="M307.2,153.6C307.2,68.8,238.4,0,153.6,0C68.8,0,0,68.8,0,153.6c0,84.8,68.8,153.6,153.6,153.6
		C238.4,307.2,307.2,238.4,307.2,153.6L307.2,153.6z M153.6,268.8c-63.5,0-115.2-51.7-115.2-115.2c0-63.5,51.7-115.2,115.2-115.2
		c63.5,0,115.2,51.7,115.2,115.2C268.8,217.1,217.1,268.8,153.6,268.8L153.6,268.8z M153.6,268.8"/>
	<path d="M64,153.6h25.6c0-35.3,28.7-64,64-64V64C104.2,64,64,104.2,64,153.6L64,153.6z M64,153.6"/>
</g>
</svg>
