<?xml version="1.0" encoding="utf-8"?>
<!-- Generator: Adobe Illustrator 19.0.0, SVG Export Plug-In . SVG Version: 6.00 Build 0)  -->
<svg version="1.1" id="Layer_6" xmlns="http://www.w3.org/2000/svg" xmlns:xlink="http://www.w3.org/1999/xlink" x="0px" y="0px"
	 viewBox="0 0 531.4 1616.3" style="enable-background:new 0 0 531.4 1616.3;" xml:space="preserve">
<style type="text/css">
	.st0{fill:#603916;}
</style>
<g>
	<path class="st0" d="M277.7,126.8c8.6-13.7,43.2-15.3,58.5,20.1c0,0,0,0,0,0c0.2,1.4-0.9,2.9-2.6,2.5
		c-13.7-3.7-49.9,25.9,19.5,76.4c3.8,2.7,2.2,5.5-3.2,4.2C249.7,205,252,29.6,147.6,5c-2.7-0.6-1.5-3.7,1.2-4.1
		C190.4-5.4,290.3,27,277.7,126.8z"/>
	<path class="st0" d="M158.2,50.9c7.4,4.6,13.6,10.4,19.1,16.6c11,12.6,19.3,26.9,27,41.2c15.2,28.9,27.4,58.8,43.1,86.7
		c7.9,13.9,16.7,27.4,27.9,38.5c5.6,5.6,11.9,10.5,19,14.2c7.1,3.6,14.8,6,22.9,6.9c-16.4,0.3-32.3-7.3-44.7-18
		c-12.5-10.9-22.3-24.3-30.8-38.2C224.6,171,212,141,196.9,112.8c-7.5-14.1-15.5-28-25.6-40c-5-5.9-10.7-11.4-16.9-15.5
		c-2.6-1.5-6.5-2.6-10-3c-3.7-0.5-7.4-0.5-10.8,0.2c-3.5,0.7-6.6,2.3-8.9,4.7c-2.4,2.6-4,5.7-4.8,9.2c-1.6,6.9,1.1,14.7,6.9,19.3
		c2.9,2.4,6.2,4.1,9.9,4.2c3.7,0.2,7.5-0.9,10.5-3.2c3-2.3,5.4-5.7,5.6-9.5c0.3-3.8-1.7-7.8-5.2-9.9c3.7,1.7,6.3,5.6,6.5,9.9
		c0.2,4.4-2.3,8.4-5.4,11.2c-3.2,2.9-7.5,4.6-11.9,4.7c-4.5,0.2-8.9-1.6-12.4-4.1c-7.3-5.1-11.4-14.6-9.8-23.6
		c0.6-4.4,2.7-8.9,5.7-12.3c3.1-3.6,7.5-5.9,11.9-7c4.4-1.1,8.9-1.3,13.2-0.9C149.5,47.7,153.6,48.5,158.2,50.9z"/>
	<path class="st0" d="M266.9,244.8c-10-6.8-18.9-15.4-26.4-24.9c-15.3-19-25.2-41.3-35.3-62.7c-5.1-10.6-10.1-21.4-17.2-29.7
		c-3.5-4.1-7.7-7.4-12.6-8.8c-4.9-1.5-10.4-1.5-14.4,0.8c-4,2.2-6.5,7.3-6.8,12.4c-0.3,5.1,1.7,10.5,5.9,13.6
		c2.1,1.6,4.6,2.5,7.3,2.9c2.8,0.4,5.3-0.1,7.6-1.7c2.2-1.5,3.6-4.2,3.4-6.9c-0.1-2.8-2.1-5.3-4.6-6.9c2.7,1.2,5.2,3.5,5.8,6.7
		c0.6,3.2-0.8,6.6-3.2,8.8c-2.4,2.2-6,3.2-9.2,3.1c-3.2,0-6.5-0.8-9.4-2.5c-11.8-7.4-12.7-26.5-0.4-35.1c6.2-4.1,13.7-4,20.1-2.4
		c6.7,1.6,12.4,5.9,16.6,10.7c8.4,9.7,13.6,20.8,18.8,31.5c10,21.7,19.3,43.3,32.8,62.3c13.4,19,31.7,34.7,54,43.4
		C288.1,256.6,277,251.5,266.9,244.8z"/>
	<path class="st0" d="M47.7,92.4c-0.4,2.2-4.1,2.1-4.2-0.5c-1.1-37.5,43.7-52.7,73.9-54.3c1.5,0,2.2,1.2,2,2.4
		c0.1,0.9-0.3,2-1.4,2.3c-13.5,4.3-21.1,27.7-11.8,39c1.2,1.5,0,3.4-1.4,3.7c-0.2,0.2-0.4,0.3-0.6,0.4c-15.4,5.4-30.9-8.4-24.5-17.3
		C63.7,69.6,55.2,82.4,47.7,92.4z"/>
	<path class="st0" d="M104.6,253c-7.1-31.8,3-51.7,19.6-65.9c15.4-13.1,41.7-18.3,58.1-3.8c14.4,12.7,17.4,26.7,7.3,38.9
		c-6.7,8.1-25,10.1-33.5,1.8c-6.7-6.5-13.5-13-23.5-13.7c-12.7-0.9-36.6,40,38.3,98.1c-29.7-42.1,20.8-96.3,66-58.1
		c26.1,22.1,12.1,62.1-13.8,59c-13.8-1.6-19.2-16.5-12.2-27.1c4.6-7,16.5-8.5,20.8,0.5c0.1,0.2-0.1,0.4-0.2,0.6
		c16.1,6.3,13.4-21.4-0.2-25.5c-10.7-3.2-29.9-1.7-40,12.6c-8.8,12.5,1,43,28.2,61.7c37.2,25.5,93.5,78.3,78.4,141.7
		c-15,63.1-110.3,93.3-155.5,42.9c-20.9-23.3-23.9-67.7,1.1-86.8c56.2-43,88.2,21.3,68.7,45.2c-9.9,12.2-26.3,5.1-22-13.8
		c3.1-13.7,19.3-27.6-4.6-35c-34.2-10.7-56,32.9-46.9,59.5c6.2,18.1,20.5,30.5,39.5,34.2c-11.4-20.4,15.2-33.1,26.9-28.9
		c2.6,0.9,9.1,44.7,42.8,14.1c-11.4-0.3-29-23.6-14.5-42.1c0.8-1.7,4-1.4,4.1,1c0.6,11.5,15.7,10.1,22.8,7.1
		c9.7-4.1,34.6-28.4,13.5-70.1c0,0,0,0,0-0.1c-7-11-16-20.9-26.1-29.9c-4.8-3-9.1-5.3-12.2-6.7c-11.2-5.3-27.4-10.4-38.9-2.9
		c-10.9,7-13.3,29.6,3.9,29.7c4.2,0,8.4-2.1,9-6.7c0.2-1.4-0.2-3.3-1.1-4.8c0,1-0.2,2-0.7,2.9c-1.5,2.5-4.7,3.4-7.3,1.9
		c-2.5-1.5-3.3-4.1-1.8-6.7c1.4-2.4,3.3-3.6,6.8-2.7c4.3,1.2,7.4,5.8,7,10.7c-0.5,6-5.5,10.1-11.1,11.3c-16.9,3.7-26.3-16.8-20-30.3
		c8.7-18.5,28.5-18.7,47.1-11.3c-8.8-6.4-17.9-12.5-26.9-18.3c-14.3-1.9-27.1-1.4-34.6-0.8c-17.3,1.4-40.6,6.7-49.2,23.8
		c-8.3,16.2,4.7,45.3,25.7,33.3c5.1-3,8.6-8.5,6.2-14.5c-0.8-1.9-2.6-3.8-4.7-5c0.7,1.2,1.2,2.5,1.2,4c0,4.1-3.3,7.4-7.4,7.4
		c-4.1,0-6.9-2.7-6.9-6.8c0-3.9,1.5-6.7,6.3-8c6.1-1.6,13.1,1.8,16,8.1c3.6,7.7,0.4,16.1-5.6,21.5c-17.9,16.4-43.7-1.9-45.5-22.7
		c-3.7-42.3,50.7-53.1,89.3-46.1c-5.9-3.7-11.6-7.3-17.2-10.8C150,304.6,111.6,284,104.6,253z"/>
	<path class="st0" d="M204.5,56.3c23.9,28,38.2,62.6,54.8,95c15.4,30.1,33.6,61.7,64.2,78.4c9.5,5.2,17.2,8.4,27.4,10.1
		c-4.6,5-6.4,8.5-11.3,15.9c-20.9-5.7-36.7-12.2-53.2-27.9c-50.1-47.9-59.2-126-112.5-170.6c-52.2-43.6-140.2-19.7-149.3,52
		c-4,31.7,16.1,57.1,47,66.8c29.8,9.4,50-31.1,23.5-34.3C86,140.9,76,129.8,77,119c1.1-11.5,14.6-23.7,36.7-15.4
		c35.6,13.3,34,63.8,3.4,86.1c-31.3,22.7-75.5,9.7-98.6-17.6C-7.6,141.2-4,95.9,16.4,63.2C37.7,29.4,75,10.1,114.7,12
		C150.2,13.6,181.5,29.4,204.5,56.3z"/>
	<path class="st0" d="M364.6,1064.8c-2.2,4.7-4.4,9.4-6.1,14.3c-22.8-14.9-39.4-38.4-49.3-63.6c-58.4-148.6,59.5-322.4,138.6-383.2
		c0.9,1.5,2.1,3.5,2.6,4.4c-11.6,14.3-19,33.3-19.1,48.5c0,14.1,3.1,29.6-3.5,42.2c-7.4,13.9-23.7,23.1-19.4,41.9
		c4.5,19.8,50.6,5.6,25.9-12.2c-1.8-1.3-2-3.5,0-4.1c13.3-4.3,21.9,4.9,22.7,13.7c5.6,61.3-61.1,52.8-66.4,27.2
		c4.4,19.6-4.6,42.5-18.9,56.2c-11.5,11.1-58.6,28.2-50.3,74.2c2.7,14.7,29.2,14.2,17.9-6.3c-3.6-4.3-0.7-9.2,4.2-5.7
		c46.1,32.9-5.7,76.5-31.7,47.7c2.9,20.1,7.8,40.5,16.5,58.9c10.9,21,40.7,4.7,27.1-13.6c-1.6-2.2,0.7-4.6,3-3
		c28.3,19.9,9.1,55.4-14.2,42.6C349.9,1053,356.8,1059.6,364.6,1064.8z"/>
	<path class="st0" d="M466.8,1017.4c-14.2,13.5-50.3-16.3-59.5-21.3c-14.2-7.6-48.2-51-16.9-92.1c16.2-21.2,45.2-22.1,69.5-11.8
		c-0.1,0.2-2,6.7-2.6,10.9c-23.6-9-48.9,4.6-50.8,27.1c-2.1,26.2,34.3,44,61.7,58.8C476.2,993.4,474.6,1008.2,466.8,1017.4z"/>
	<path class="st0" d="M403.9,1079c15,2.1,27.4,0,40.7-5.2c32.5-12.8,52.2-41,56.5-75.4c3.9-31.2-5-66.9-30.2-87.4
		c1.4-3.6,3-7.1,4.1-10.8c1.9,1.3,3.8,2.7,5.5,4.1c50.8,42,40.1,139.8-11.1,173.1c-22.5,14.6-46.4,21.1-72.4,16.3
		C400.2,1088.6,403.4,1084.3,403.9,1079z"/>
	<path class="st0" d="M463.4,620.8c71.5-84.8,64.8-171.7,26.5-226.9c-11.4-16.3-30-28.6-50.4-26.9c-17.6,1.5-35.1,14.5-37.8,32.6
		c-2.9,18.8,13.3,37.5,31.7,25.1c2.3-1.6,4.3-3.7,5.7-6.1c-2.2,1.7-4.8,2.7-7.8,2.7c-7,0-12.8-5.7-12.8-12.8c0-7,5.7-12.5,12.8-12.8
		c9.3-0.3,14.4,9.6,15,13.2c1.7,10-3.8,18.1-11.9,23c-18.6,11.3-37.6-2.1-41.1-21.8c-3.9-21.8,11.3-41.7,31-49.3
		c20.9-8.1,44.2-1.6,60.8,12.6c34,28.8,45.2,87.3,41.5,128.4c-4,44.4-31.1,97.8-60.8,123C465.9,624.8,464.3,622.2,463.4,620.8z"/>
	<path class="st0" d="M468.1,227.9c4.5-3.4,2.4-1.8,7.1-5.7c26.4,19.4,29.1,61.1,25.6,78.6c-8.5,43.2-51.4,59.4-78.8,47.3
		c-19.4-8.5-32.5-28.1-28.6-49.9c3.5-19.7,22.5-33.1,41.1-21.9c8,4.9,14.4,13.1,11.9,23c-2.1,8.1-9.7,13.2-18.5,10.8
		c-5.3-1.5-9.3-6.4-9.3-12.2c0-7,5.7-12.8,12.8-12.8c1.9,0,3.6,0.4,5.2,1.1c-1-1-2-1.9-3.2-2.7c-18.4-12.5-34.5,6.3-31.7,25.1
		c2.7,18.1,21.8,34.3,39.4,34.1c38.3-0.5,44.7-24.4,51-40.9C501.3,278.2,485.1,237.5,468.1,227.9z"/>
	<path class="st0" d="M411.5,1595c2.7-12.8,22.7-9.9,41.1-12.8c16.7-2.6,56.9-30.1,65-78.5c-2.5,7.2-5.8,14-9.9,19.7
		c-13,18.4-38.8,36.4-62.4,28.7c-20.5-6.7-32.4-36.4-10.3-49.3c8.9-5.2,22.3-1.9,25,9c1.9,8.2-10.3,19.7-15,9.4
		c5.8,8,15.8-3.9,9.8-11c-6.3-7.5-16.5-4.3-21.2,3.1c-11.4,17.9,10.5,33.6,27,32.2c31.7-2.8,54.6-35.1,58.1-66.4
		c-1.3-19.7-7.8-41.9-22.1-66.5c-34.8-59.7-130.5-98.8-137.6-185.7c-3.7-44.5,6.2-89.4,20.3-130.2c8.5-24.6,18.9-48.2,30-71.8
		c2.9-6.2,5.7-12.2,8.4-18.2c3.2,2.4,6.7,4.6,10.3,6.6c-3.9,8.8-7.7,17.2-11.2,25c-15.2,33.6-29.2,69.6-38.8,105.1
		c-9.4,34.8-16.7,80,10.2,122.3c30.7,48.3,111.8,26.6,82.9-18.4c-5.7-1.4-6.6-4.8-0.7-7.1c19.8-7.8,34,0,34.8,22.1
		c5.5-17.4,10.6-40.6-5.3-56.9c-15.8-16.3-49.8,5.9-56.3,25.6c-3,9.2-16.3,14.6-24.3,4.9c-19.8-24.1,15.8-59.3,36.1-61.7
		c55.6-6.3,65.9,46.6,67.6,57.5c5.4,34-20.1,73.5-48.4,90.1c-13.6,8-28,12.6-39.7,10.5c130.4,97.1,101.3,190.6,69.2,244.3
		c-11.4,19.1-30.7,30.6-52.1,37.7C434.9,1619.8,407.2,1615.2,411.5,1595z"/>
	<path class="st0" d="M375.5,201.1c-4.2,2.3-8.1,4.9-11.7,8.1c-3.7,3.1-6.8,6.7-9.4,10.8c3.6-9.1,11.1-16.4,19.4-21.7
		c8.3-5.4,17.7-8.9,27.4-11.1c9.7-2,19.7-2.6,29.5-1.3c4.9,0.7,9.7,1.7,14.4,3.3c4.6,1.7,9.1,3.6,13.2,6.3
		c-4.5-1.8-9.1-3.3-13.8-4.3c-4.6-1.1-9.4-1.8-14.1-2c-9.5-0.5-19,0.2-28.3,2.2C392.8,193.4,383.8,196.6,375.5,201.1z"/>
	<path class="st0" d="M506.5,323.8c5.8-12.2,8.5-25.7,8.9-39.2c0.5-13.5-1.9-27-7-39.6c-2.6-6.3-5.8-12.3-9.8-17.9
		c-3.8-5.7-8.4-10.8-13.3-15.7c5.6,4.1,10.5,9,15,14.4c4.4,5.5,8.1,11.4,11.1,17.8c6,12.7,8.8,27,8.3,41c-0.4,14-3.4,28.2-10.2,40.6
		c-3.4,6.2-7.5,11.9-12.4,16.9c-5,4.9-10.5,9.2-16.6,12.5C491.5,346.6,500.7,336.1,506.5,323.8z"/>
	<path class="st0" d="M307,337.3c-1.3,25.1,1.6,50.3,8.1,74.5c6.2,24.3,16,47.7,28.5,69.5c6.2,10.9,13.2,21.4,20.9,31.4
		c7.6,10.1,16.1,19.5,25,28.4c-9.6-8.2-18.4-17.4-26.7-27.1c-8.1-9.8-15.5-20.2-22.1-31c-13.2-21.8-23.1-45.5-29.8-70.1
		c-6.2-24.7-9.2-50.4-7.3-75.8c1-12.7,3.2-25.3,6.8-37.5c3.7-12.2,8.6-24,15.2-34.8C314.2,287.2,308.3,312.2,307,337.3z"/>
	<path class="st0" d="M310.9,266.8c-12.7,19.9-19.1,43-20.7,66.2c-1.6,23.2,1.1,46.7,6.9,69.2c5.5,22.6,14.2,44.5,25.1,65.2
		c5.4,10.3,11.5,20.4,18.1,30c6.6,9.7,13.9,18.9,21.6,27.7c-16.9-16.4-31-35.6-42.6-56.2c-11.6-20.6-20.4-42.8-26.3-65.7
		c-5.6-23-8.3-46.9-6-70.5c1.2-11.8,3.6-23.5,7.4-34.7C298.4,286.9,303.8,276.2,310.9,266.8z"/>
	<path class="st0" d="M462.9,386.9c4.3,2.3,8,5.5,11.3,9.1c3.3,3.6,6.3,7.4,8.9,11.5c5.3,8.2,9.5,17,13,26
		c6.8,18.2,10.1,37.7,10.2,57.2c-0.2,19.5-3.8,39-11.1,57c-3.7,9-8.1,17.7-13.4,25.8c-5.3,8.1-11.2,15.8-17.9,22.8
		c11.9-15.1,21.7-31.8,28.2-49.8c6.5-17.9,10-36.9,9.9-55.9c0.2-19-3-38-9-56.1c-3-9-6.8-17.8-11.7-26.1
		C476.6,400.4,470.9,392.4,462.9,386.9z"/>
	<path class="st0" d="M487.9,499.6c-1.1,14-4,27.9-9.3,40.9c-2.7,6.5-5.9,12.7-9.7,18.6c-3.9,5.8-8.3,11.3-13.4,16
		c8.8-10.7,15.5-22.9,20-35.8c4.5-12.9,7.2-26.4,8.1-40c1-13.6,0.4-27.4-1.8-40.9c-1.1-6.8-2.7-13.4-4.8-19.9
		c-2.1-6.5-4.9-12.9-8.8-18.6c9.2,10.6,13.8,24.4,16.8,37.9C488,471.5,488.8,485.6,487.9,499.6z"/>
	<path class="st0" d="M425.7,603.8c-34.9,32.7-66.8,68.5-93.7,107.7c-26.7,39.2-48.4,82.2-59.7,128.1
		c-11.7,45.7-12.1,94.1-0.6,140.2c1.3,6.2,1.9,12.4,1.5,18.8c-0.5,6.3-2.1,13-6.7,18.3c-4.6,4.9-10.3,8.1-16.6,9.8
		c-6.2,1.7-13,1.4-19-1.1c-3-1.3-5.7-3-8.1-5.2c-2.4-2.1-4.4-4.9-5.5-8c-2.4-6.1-1.5-13.2,2.1-18.4c0.9-1.3,2-2.6,3.1-3.5
		c1.3-1.1,2.7-1.9,4.2-2.4c3-1.1,6.4-1,9.3,0.2c2.9,1.2,5.5,3.4,6.4,6.4c0.9,3,0.1,6.3-2,8.5c1.9-2.3,2.5-5.6,1.4-8.3
		c-1-2.7-3.6-4.5-6.3-5.4c-2.7-0.9-5.7-0.8-8.2,0.3c-1.3,0.5-2.5,1.3-3.4,2.2c-1.1,1.1-1.9,2.1-2.6,3.3c-3,4.8-3.3,11-1,16
		c2.2,5,7,8.5,12.1,10.5c10.4,3.9,22.8-0.4,29.8-8.4c3.2-3.9,4.6-9.5,4.8-15c0.2-5.6-0.5-11.4-1.8-16.8c-6.5-23.2-9.8-47.5-10-71.7
		c-0.1-24.3,3-48.5,8.8-72c11.8-47.1,34.4-90.9,62.6-129.8C354.7,668.6,388.7,634.1,425.7,603.8z"/>
	<path class="st0" d="M297.8,806.4c14.3-35.7,33.7-69.1,56.5-99.8c11.5-15.3,23.7-30,37-43.7c13.3-13.7,27.2-26.9,42.8-37.8
		c-14.7,12-28,25.7-40.4,40c-12.4,14.4-24.1,29.3-34.8,44.8c-10.8,15.5-20.8,31.6-29.8,48.2c-9,16.6-17.1,33.7-23.8,51.2
		c-13.6,35-22,72.2-22.4,109.7c-0.1,18.7,1.7,37.4,5.8,55.7c4.1,18.2,10.4,36,18.6,52.9l-0.2-0.3c3.8,6.4,6.5,12.9,8.5,19.8
		c1.9,6.9,3,14.3,2.1,21.6c-0.8,7.3-3.7,14.6-8.5,20.2c-4.8,5.8-11.5,9.9-18.8,11.3c-7.3,1.5-15.2-0.1-21.3-4.2
		c-6.4-4.1-10-11.9-9-19.2c0.5-3.6,1.9-7.2,4.2-10c2.5-2.9,6.1-4.5,9.7-4.6c3.6-0.1,7.3,1.4,9.6,4.2c2.2,2.9,2.3,7.1,0.3,9.9
		c1.8-3,1.4-7-0.9-9.5c-2.2-2.5-5.8-3.5-9-3.3c-3.2,0.2-6.4,1.9-8.3,4.4c-2,2.6-3.1,5.8-3.3,9c-0.5,6.5,3,12.9,8.5,16.1
		c5.6,3.3,12.3,4.3,18.5,2.8c12.6-2.9,21.7-15.1,22.6-27.8c1-12.9-3.7-26.3-10.4-37.4l-0.1-0.2l-0.1-0.1
		c-17.9-34.1-27.2-72.9-26.9-111.5C274.7,880.2,283.7,842,297.8,806.4z"/>
	<path class="st0" d="M88.5,242c1.6,11.6,5.3,22.8,11,32.9c5.6,10.2,13.3,19.2,22.3,26.6c9,7.4,19.6,13,30.6,17.4
		c-5.8-1.3-11.5-3.3-17-5.7c-5.5-2.5-10.7-5.6-15.6-9.1c-9.9-7.1-18.1-16.5-24-27.1c-5.9-10.7-9.6-22.5-10.5-34.7
		c-0.9-12,0.4-24.7,6.6-35c-2.3,5.5-3.5,11.3-3.9,17.2C87.5,230.3,87.7,236.2,88.5,242z"/>
	<path class="st0" d="M241.1,381.8c-6.6-5.3-13.9-10-22.4-12.2c8.8,0.6,17.2,4.5,24.4,9.6c7.3,5.1,13.5,11.7,18.3,19.3
		c4.7,7.6,7.8,16.4,8.4,25.3c0.7,8.9-1,17.9-4.6,25.8c2-8.5,2.6-17.1,1.3-25.5c-1.2-8.3-4.3-16.3-8.7-23.4
		C253.4,393.6,247.7,387.2,241.1,381.8z"/>
	<path class="st0" d="M470.3,820.5c-4.8,22.4-11,44.4-18.1,66.1c-1.3-0.3-2.5-0.6-3.8-0.8c7.2-21.7,13.6-43.7,18.7-66
		c5.4-24,9.1-48.5,9.4-73.1c0.4-24.6-3.1-49.5-12.6-72.4c10.3,22.6,14.3,47.6,14.6,72.4C478.8,771.5,475.4,796.3,470.3,820.5z"/>
	<path class="st0" d="M446.7,903.4c-6.4,18.6-13.3,37.1-20.3,55.5c-1.3-0.7-2.4-1.6-3.5-2.6c6.9-17.6,13.5-35.3,19.8-53.2
		C444,903.1,445.3,903.2,446.7,903.4z"/>
	<path class="st0" d="M350.7,1171c-2.4,12.1-4.1,24.3-4.4,36.6c-0.2,12.3,1,24.7,5,36.5c-4.4-11.6-6-24.1-6.1-36.5
		c-0.1-12.4,1.3-24.8,3.5-37c4.4-24.4,11.6-48.2,19.5-71.7c11.4-33.5,24.6-66.4,37.7-99.2c1.1,0.7,2.3,1.3,3.6,1.9
		c-13.1,32.7-26.3,65.3-38.1,98.4C363,1123.3,355.5,1146.9,350.7,1171z"/>
	<path class="st0" d="M464.8,748.7c1.6-22.6,0.6-46.1-8.6-67.3c5.1,10.3,8,21.6,9.5,33c1.5,11.4,1.7,23,1.2,34.4
		c-1.2,23-5.3,45.7-10.3,68.1c-5.3,22.7-11.8,45.1-18.9,67.3c-1.3-0.1-2.6-0.3-4-0.4c7.3-22.3,14-44.8,19.7-67.6
		C458.8,794,463.2,771.5,464.8,748.7z"/>
	<path class="st0" d="M395.3,990.9c1,1.1,2,2.1,3.1,3.1c-10.5,27.6-21,55.2-31.2,82.9c-7.9,21.5-15.4,43.1-21.7,65.1
		c-3.2,11-6,22.1-8,33.3c-1.9,11.2-3.3,22.7-1.8,34.1c-1.9-11.3-1-23,0.7-34.3c1.7-11.4,4.2-22.6,7.1-33.7
		c5.9-22.2,13.1-44,20.6-65.6C374.1,1047.3,384.8,1019.2,395.3,990.9z"/>
	<path class="st0" d="M426.2,905.6c1.5-0.5,3.1-0.9,4.6-1.2c-4.9,14.6-10,29.2-15.2,43.7c-1-1.3-2.1-2.5-3.2-3.6
		C417.2,931.5,421.8,918.6,426.2,905.6z"/>
	<path class="st0" d="M469.5,1389.2c14.4,23,27,57.6,5.2,80.4c-9.3,9.7-24.8,14.4-37.5,8.8c-12-5.2-18.8-20-13.1-32.2
		c3.3-6.9,12-11.5,19.4-9c9.6,3.2,11,22.1-0.6,18.4c9.9,1.1,7.5-13-0.5-14.5c-5.1-1.2-10.9,2.9-12.8,7.6
		c-4.7,11.5,5.8,22.7,16.8,23.7c11.5,1,22.1-5.8,27.6-15.6c13.2-23.7-2.3-53.4-15.3-73.6c-14.8-22.7-34-41.3-50.7-62.5
		C430,1342.1,453,1363,469.5,1389.2z"/>
	<path class="st0" d="M409.5,562.7c-15-22.4-30.8-44.5-46.2-67c-40.3-59-56.6-127.8-36.9-199.2c13.7-49.5,55.3-109.4,126.5-88.9
		c-2.5,2.1-3.9,3.8-5.7,5.2c-53.9-8.9-83.5,25.2-98.9,50.7c-17.9,29.6-21,60.2-19.8,94.3c1.6,46.7,20.1,87,43.4,125.1
		c-1.6-16,3.4-30.5,19.4-39.5c18.2-10.2,47.9,1,44.3,24.9c-1.2,7.9-6.3,15.3-14.7,16.7c-6.8,1.1-13.6-2.8-15.6-8.7
		c-1.6-4.7-0.2-7.5,3.1-9.7c3.4-2.3,7.2-1.5,9.5,1.9c2.3,3.4,1.4,8-2,10.3c-1.2,0.8-2.6,1.2-3.9,1.3c2.2,1.1,4.8,1.5,6.8,1.1
		c6.3-1.4,8.9-7.4,8.5-13.3c-1.8-24.1-33.2-18.5-41.9-2.6c-6.9,12.4-4,27.7,1.5,41c5.5,8.2,11.1,16.4,16.7,24.6
		c-3-15,0.1-29.4,15.2-34.6c12.2-4.2,28.9,5.8,24.2,19.9c-1.6,4.7-5.5,8.6-10.7,8.5c-4.3-0.1-7.9-3.2-8.5-7c-0.5-3,0.7-4.6,2.9-5.6
		c2.3-1,4.5-0.1,5.6,2.2c1,2.3,0,5-2.3,6.1c-0.8,0.4-1.7,0.4-2.5,0.3c1.2,0.9,2.7,1.4,4,1.4c4-0.2,6.2-3.5,6.6-7.1
		c1.5-14.8-18.1-14.8-25.2-6.1c-7.5,9.1-4.6,23.6-1.1,33.7c0,0.1,0.1,0.2,0.1,0.3c3,4.3,5.9,8.7,8.8,13c2.2,3.4,4.5,6.8,6.7,10.2
		c-2.5-12.4-0.2-25.1,12.4-27.9c8.7-1.9,19.4,6.2,15.1,15.6c-1.4,3.1-4.4,5.5-8,5c-2.9-0.4-5.2-2.8-5.3-5.5
		c-0.1-2.1,0.8-3.1,2.4-3.6c1.7-0.5,3.1,0.3,3.7,1.9c0.5,1.7-0.4,3.5-2.1,4c-0.6,0.2-1.2,0.2-1.8,0c0.8,0.7,1.8,1.2,2.6,1.3
		c2.8,0.2,4.5-1.9,5.1-4.4c2.2-10.1-11.3-11.6-16.8-6.1c-5.8,5.7-5,15.8-3.4,23.1c0.3,1.3,0.7,2.9,1.3,4.7
		c35.2,55.8,65.3,119.2,66.8,184.4c1.6,68-26.6,148.6-54.4,215c-3.5-2.2-6.8-4.5-10.1-7c51.6-124.8,59.5-203.3,49-248.5
		c-11.4-49-33.6-91.9-59.6-133c-6.7-5.4-16.4-11-25.1-8c-8.6,2.9-14.1,17.8-2.4,20.8c2.9,0.7,6,0,7.3-3c0.4-0.9,0.4-2.3,0.1-3.4
		c-0.1,0.7-0.5,1.3-1,1.8c-1.4,1.5-3.8,1.5-5.2,0.1c-1.5-1.4-1.5-3.4-0.1-4.8c1.4-1.4,2.9-1.9,5-0.7c2.7,1.5,4.1,5.2,2.9,8.4
		c-1.4,4-5.5,5.9-9.5,5.7c-12.1-0.4-14.9-15.9-8.3-23.9c4.4-5.3,9.8-7.3,15.5-7c-36.8-12.7-54.9-3.4-62,0.4
		c-9.8,5.2-13.5,17.8-3.5,26.1c1.4,1.2,0.2,3.2-1.5,3.7c-19.1,5.7-48.2-20.6-33.3-51.7c-22.7-4.3-57.4,31.9-38.9,53.8
		c1.2,1.4,0.2,3.4-1.5,3.6c-33.3,5-36.2-31.9-24.3-46.6c-10.5,10-18.6,22.4-22.8,36.4c-10.4,34.5,11.6,76,50.7,73.7
		c13.8-0.8,26.7-8.2,35.3-18.8c3.6-23.4-29-24.1-29.6-40.9c-0.3-7.7,8.8-17.8,16.6-16.2c13.6-1.1,25.7,14.5,26.5,27.4
		c1.2,19.1-8.6,35-24.5,45c-34.3,21.4-76.3-3.7-81.3-42.1c-6.8-51.8,32.6-86.5,74.7-97.2C326.3,516.9,374.3,535.9,409.5,562.7z"/>
	<path class="st0" d="M278.3,373.1c-22.7-13.5-48.9-51-23.4-61.7C287.7,297.8,263.4,355.4,278.3,373.1z"/>
	<path class="st0" d="M384.5,408.7c-19.7-21.8-11.2-35.6-2.7-47.3c-10.9,10.9-32.2,4-43.1-8.8c11.2-10.4,30.3-19.9,43.1-6.4
		c-12-15.2-11.7-32.2,4-47.8c-6.6,29.2,22.6,49.7,35.3,55.3C408.4,357.7,380,376.3,384.5,408.7z"/>
	<path class="st0" d="M191.8,439c0,1.1-0.5,2.2-1.2,3c-0.8,0.8-1.9,1.2-3,1.2c-1.1,0-2.2-0.5-3-1.2c-1.6-1.6-1.6-4.5,0-6
		c0.8-0.8,1.9-1.2,3-1.2c1.2,0,2.2,0.5,3,1.2C191.3,436.8,191.8,437.9,191.8,439z"/>
	<path class="st0" d="M148.2,473.3c2.3-0.4,4.5,1.1,4.9,3.4c0,0.3,0,0.5,0,0.7c0,2-1.4,3.8-3.5,4.2c-2.3,0.4-4.5-1.2-4.9-3.5
		C144.3,475.9,145.8,473.6,148.2,473.3z"/>
	<path class="st0" d="M158.9,444c-1.4-1.9-1-4.6,0.9-6c1.9-1.4,4.5-1,6,0.9c0.5,0.8,0.8,1.7,0.8,2.5c0,1.3-0.6,2.6-1.7,3.4
		C162.9,446.3,160.3,446,158.9,444z"/>
	<path class="st0" d="M178.8,436.5c0,2.1-1.6,4-3.7,4.2c-2.3,0.3-4.5-1.4-4.7-3.7c-0.3-2.3,1.4-4.5,3.7-4.7c2.3-0.3,4.5,1.4,4.7,3.7
		C178.8,436.2,178.8,436.4,178.8,436.5z"/>
	<path class="st0" d="M149.6,459.9c2,0.4,3.5,2.2,3.5,4.2c0,0.2,0,0.5-0.1,0.7c-0.4,2.3-2.6,3.9-4.9,3.4c-2.3-0.4-3.9-2.6-3.5-4.9
		C145.1,461,147.2,459.5,149.6,459.9z"/>
	<path class="st0" d="M157.4,490.1c0,1.5-0.9,3.1-2.3,3.8c-2.1,1.1-4.7,0.2-5.7-1.9c-1.1-2.1-0.2-4.7,1.9-5.7
		c2.1-1.1,4.7-0.2,5.7,1.9C157.2,488.8,157.4,489.5,157.4,490.1z"/>
	<path class="st0" d="M149.8,449.4c1.2-2,3.8-2.7,5.8-1.5c1.4,0.8,2.1,2.2,2.1,3.7c0,0.8-0.2,1.5-0.6,2.2c-1.2,2-3.8,2.7-5.8,1.5
		C149.2,454,148.6,451.4,149.8,449.4z"/>
	<path class="st0" d="M163.6,504.4c-0.8,0.8-1.9,1.3-3,1.3c-1.1,0-2.2-0.5-3-1.3c-1.6-1.5-1.6-4.4,0-6c0.8-0.8,1.9-1.2,3-1.2
		c1.1,0,2.2,0.4,3,1.2c0.8,0.8,1.3,1.9,1.3,3C164.9,502.5,164.4,503.6,163.6,504.4z"/>
	<path class="st0" d="M221.4,597.6c0.8-0.8,1.9-1.2,3-1.2c1.1,0,2.2,0.5,3,1.2c0.8,0.8,1.3,1.9,1.3,3c0,1.1-0.5,2.2-1.3,3
		c-0.8,0.8-1.9,1.2-3,1.2c-1.1,0-2.2-0.4-3-1.2C219.8,602.1,219.8,599.2,221.4,597.6z"/>
	<path class="st0" d="M228.8,623.3c0.1,0.4,0.1,0.8,0.1,1.2c0,1.9-1.2,3.6-3.1,4.1c-2.3,0.6-4.6-0.7-5.2-3c-0.6-2.3,0.7-4.6,3-5.2
		C225.8,619.7,228.2,621.1,228.8,623.3z"/>
	<path class="st0" d="M241.4,651.2c1.3-2,4-2.5,5.9-1.2c1.2,0.8,1.9,2.2,1.9,3.5c0,0.8-0.2,1.7-0.7,2.4c-1.3,2-3.9,2.5-5.9,1.2
		c0,0,0,0,0,0C240.6,655.8,240.1,653.2,241.4,651.2z"/>
	<path class="st0" d="M233.4,635.7c0,1.5-0.9,3-2.3,3.7c-2.1,1.1-4.6,0.3-5.7-1.7c-1.1-2.1-0.3-4.7,1.8-5.7c2.1-1.1,4.6-0.3,5.7,1.7
		C233.2,634.3,233.4,635,233.4,635.7z"/>
	<path class="st0" d="M227.1,612.5c0,2.3-1.8,4.2-4.1,4.3c-2.3,0-4.3-1.8-4.4-4.2c0-2.3,1.8-4.3,4.2-4.3
		C225.1,608.2,227.1,610.1,227.1,612.5C227.1,612.5,227.1,612.5,227.1,612.5z"/>
	<path class="st0" d="M267.7,664.6c-2.3,0-4.3-1.9-4.3-4.2c0-2.3,1.9-4.3,4.2-4.3c2.3,0,4.3,1.9,4.3,4.3
		C271.9,662.7,270.1,664.6,267.7,664.6z"/>
	<path class="st0" d="M233.1,642.4c1.7-1.5,4.4-1.3,6,0.4c0.7,0.8,1,1.8,1,2.8c0,1.2-0.5,2.4-1.4,3.2c-1.8,1.6-4.5,1.4-6-0.4
		C231.2,646.6,231.4,643.9,233.1,642.4z"/>
	<path class="st0" d="M251.7,657.5c0.7-2.2,3-3.5,5.3-2.9c1.9,0.6,3.1,2.3,3.1,4.1c0,0.4-0.1,0.8-0.2,1.2c-0.7,2.3-3.1,3.6-5.3,2.9
		C252.3,662.1,251,659.7,251.7,657.5z"/>
	<path class="st0" d="M276.7,655.7c0.8-0.8,1.9-1.2,3-1.2c1.1,0,2.2,0.4,3,1.2c0.8,0.8,1.2,1.9,1.2,3c0,1.1-0.5,2.2-1.3,3
		c-0.8,0.8-1.9,1.2-3,1.2c-1.1,0-2.2-0.5-3-1.2C275.1,660.2,275.1,657.3,276.7,655.7z"/>
	<path class="st0" d="M44.5,104.7c-0.8,0.8-1.9,1.2-3,1.2c-1.1,0-2.2-0.5-3-1.2c-1.6-1.6-1.6-4.5,0-6c0.8-0.8,1.9-1.2,3-1.2
		c1.1,0,2.2,0.5,3,1.2c0.8,0.8,1.3,1.9,1.3,3C45.8,102.8,45.4,103.9,44.5,104.7z"/>
	<path class="st0" d="M43.1,127c0,2-1.4,3.7-3.4,4.2c-2.3,0.5-4.5-0.9-5.1-3.2c-0.5-2.3,1-4.6,3.3-5.1c2.3-0.5,4.5,0.9,5.1,3.2
		C43,126.4,43.1,126.7,43.1,127z"/>
	<path class="st0" d="M68.7,161.7c0.4-2.3,2.6-3.9,4.9-3.4c2,0.4,3.5,2.2,3.5,4.2c0,0.3,0,0.5,0,0.8c-0.4,2.3-2.6,3.8-5,3.4
		C69.9,166.2,68.3,164,68.7,161.7z"/>
	<path class="st0" d="M86.6,166.7c-2.3,0.4-4.5-1.2-4.9-3.5c-0.4-2.3,1.1-4.5,3.5-4.9c2.3-0.4,4.5,1.2,4.9,3.5c0,0.2,0,0.5,0,0.7
		C90.1,164.5,88.6,166.3,86.6,166.7z"/>
	<path class="st0" d="M47.8,146.7c1.7-1.6,4.4-1.5,6,0.3c0.8,0.8,1.1,1.8,1.1,2.9c0,1.1-0.5,2.3-1.4,3.1c-1.7,1.6-4.4,1.5-6-0.2
		C46,151,46.1,148.3,47.8,146.7z"/>
	<path class="st0" d="M57.1,155.8c1.2-2,3.8-2.7,5.8-1.5v0c1.4,0.8,2.1,2.3,2.1,3.7c0,0.7-0.2,1.5-0.6,2.1c-1.1,2-3.7,2.7-5.8,1.6
		C56.6,160.5,55.9,157.9,57.1,155.8z"/>
	<path class="st0" d="M47,137.2c0.3,0.6,0.5,1.3,0.5,2c0,1.5-0.8,3-2.3,3.8c-2.1,1.1-4.7,0.3-5.7-1.8c-1.1-2.1-0.3-4.6,1.8-5.7
		C43.4,134.4,45.9,135.2,47,137.2z"/>
	<path class="st0" d="M42.2,114.5c-0.2,2.3-2.3,4.1-4.6,3.8c-2.3-0.2-4-2.3-3.8-4.6c0.3-2.3,2.3-4,4.6-3.8c2.2,0.2,3.9,2.1,3.9,4.3
		C42.2,114.2,42.2,114.4,42.2,114.5z"/>
	<path class="st0" d="M95.2,155.4c0.8-0.8,1.9-1.2,3-1.2c1.1,0,2.2,0.5,3,1.2c0.8,0.8,1.2,1.9,1.2,3c0,1.1-0.5,2.2-1.2,3
		c-0.8,0.8-1.9,1.2-3,1.2c-1.1,0-2.2-0.5-3-1.2C93.7,159.8,93.7,156.9,95.2,155.4z"/>
	<path class="st0" d="M456,236.2c0.8-0.8,1.9-1.2,3-1.2c1.1,0,2.2,0.5,3,1.2c0.8,0.8,1.2,1.9,1.2,3c0,1.1-0.4,2.2-1.2,3
		c-0.8,0.8-1.9,1.2-3,1.2c-1.1,0-2.2-0.5-3-1.2C454.4,240.6,454.4,237.8,456,236.2z"/>
	<path class="st0" d="M483,268.5c0,1.9-1.3,3.6-3.2,4.1c-2.3,0.6-4.6-0.8-5.2-3.1c-0.6-2.3,0.8-4.6,3.1-5.2c2.3-0.6,4.6,0.8,5.2,3.1
		C482.9,267.8,483,268.1,483,268.5z"/>
	<path class="st0" d="M484.7,280.3c0,2.3-1.8,4.2-4.1,4.3c-2.3,0.1-4.3-1.7-4.4-4c-0.1-2.4,1.7-4.3,4-4.5c2.3-0.1,4.3,1.7,4.5,4
		C484.7,280.2,484.7,280.3,484.7,280.3z"/>
	<path class="st0" d="M478.8,257.2c0,1.6-0.8,3.1-2.3,3.8c-2.1,1-4.6,0.2-5.7-1.9c-1.1-2.1-0.2-4.6,1.9-5.7c2.1-1.1,4.7-0.2,5.7,1.9
		C478.6,255.9,478.8,256.6,478.8,257.2z"/>
	<path class="st0" d="M460,320c1.8-1.5,4.5-1.3,6,0.5c0.7,0.8,1,1.7,1,2.7c0,1.2-0.5,2.4-1.5,3.2c-1.8,1.5-4.5,1.3-6-0.5
		C458,324.2,458.2,321.5,460,320z"/>
	<path class="st0" d="M480.8,303.9c0,0.5-0.1,1.1-0.3,1.6c-0.9,2.2-3.4,3.2-5.5,2.4c-2.2-0.9-3.2-3.4-2.4-5.5
		c0.9-2.2,3.4-3.2,5.5-2.4C479.8,300.6,480.8,302.2,480.8,303.9z"/>
	<path class="st0" d="M484,293c-0.4,2.3-2.6,3.9-4.9,3.5c-2.3-0.4-3.9-2.6-3.5-4.9c0.4-2.3,2.5-3.9,4.9-3.5c2.1,0.3,3.6,2.2,3.6,4.2
		C484.1,292.5,484,292.8,484,293z"/>
	<path class="st0" d="M465.2,244c1.8-1.5,4.5-1.3,6,0.5c0.7,0.8,1,1.8,1,2.8c0,1.2-0.5,2.4-1.5,3.2c-1.8,1.5-4.5,1.3-6-0.5
		c0,0,0,0,0,0C463.1,248.2,463.4,245.5,465.2,244z"/>
	<path class="st0" d="M474.3,316.9c-1.4,1.9-4,2.3-5.9,1c-1.9-1.4-2.4-4-1-5.9c1.4-2,4-2.4,6-1c1.1,0.9,1.8,2.2,1.8,3.5
		C475.1,315.3,474.8,316.1,474.3,316.9z"/>
	<path class="st0" d="M456.9,329.9c0,1.1-0.4,2.3-1.2,3c-0.8,0.8-1.9,1.2-3,1.2c-1.1,0-2.2-0.4-3-1.2c-1.6-1.6-1.6-4.5,0-6
		c0.8-0.8,1.9-1.3,3-1.3c1.1,0,2.3,0.5,3,1.3C456.4,327.7,456.9,328.8,456.9,329.9z"/>
	<path class="st0" d="M399.3,1102.9c0.8-0.8,1.9-1.3,3-1.3c1.1,0,2.2,0.5,3,1.3c0.8,0.8,1.2,1.9,1.2,3c0,1.1-0.5,2.2-1.2,3
		c-0.8,0.8-1.9,1.2-3,1.2c-1.1,0-2.2-0.4-3-1.2C397.7,1107.4,397.7,1104.5,399.3,1102.9z"/>
	<path class="st0" d="M379.9,1168.3c0.4-2.3,2.5-3.9,4.9-3.5c2.1,0.3,3.6,2.2,3.6,4.2c0,0.2,0,0.4-0.1,0.7c-0.4,2.3-2.5,3.9-4.9,3.5
		C381.1,1172.9,379.6,1170.6,379.9,1168.3z"/>
	<path class="st0" d="M385.8,1142.2c0.6-2.3,3-3.6,5.2-2.9c1.9,0.5,3.1,2.2,3.1,4.1c0,0.4,0,0.8-0.2,1.1c-0.6,2.3-3,3.6-5.2,2.9
		C386.5,1146.8,385.2,1144.5,385.8,1142.2z"/>
	<path class="st0" d="M409.6,1271.6c-1.8,1.5-4.5,1.2-6-0.6c-1.5-1.8-1.2-4.5,0.6-6c1.8-1.5,4.5-1.2,6,0.6c0.6,0.8,0.9,1.7,0.9,2.7
		C411.1,1269.5,410.6,1270.8,409.6,1271.6z"/>
	<path class="st0" d="M394,1116.9c0.8-2.2,3.2-3.4,5.4-2.6c1.7,0.6,2.8,2.3,2.8,4c0,0.5-0.1,0.9-0.3,1.4c-0.8,2.2-3.2,3.4-5.4,2.6
		C394.4,1121.6,393.2,1119.1,394,1116.9z"/>
	<path class="st0" d="M389.7,1129.5c0.7-2.2,3.1-3.4,5.4-2.7c1.8,0.6,2.9,2.3,2.9,4c0,0.4,0,0.9-0.2,1.3c-0.7,2.3-3.1,3.4-5.4,2.7
		C390.2,1134.1,389,1131.7,389.7,1129.5z"/>
	<path class="st0" d="M388.6,1220.4c0.1,0.3,0.1,0.6,0.1,0.9c0,2-1.4,3.7-3.4,4.2c-2.3,0.5-4.5-1-5.1-3.3c-0.5-2.3,1-4.5,3.3-5
		C385.9,1216.7,388.2,1218.1,388.6,1220.4z"/>
	<path class="st0" d="M386.8,1208.3c0,2.2-1.7,4-3.9,4.3c-2.3,0.2-4.4-1.5-4.6-3.8c-0.2-2.3,1.5-4.4,3.8-4.6
		c2.3-0.3,4.4,1.4,4.6,3.8C386.8,1208.1,386.8,1208.2,386.8,1208.3z"/>
	<path class="st0" d="M386.7,1182.4c-0.2,2.3-2.3,4.1-4.6,3.9c-2.3-0.2-4-2.3-3.9-4.6c0.2-2.3,2.3-4.1,4.6-3.9
		c2.2,0.2,3.9,2,3.9,4.2C386.7,1182.2,386.7,1182.3,386.7,1182.4z"/>
	<path class="st0" d="M392.2,1234c0,1.8-1.1,3.4-2.9,4c-2.2,0.7-4.6-0.5-5.4-2.7c-0.7-2.3,0.5-4.6,2.7-5.4c2.2-0.8,4.6,0.4,5.4,2.7
		C392.1,1233.1,392.2,1233.5,392.2,1234z"/>
	<path class="st0" d="M381.9,1199.4c-2.3,0-4.3-1.9-4.3-4.3c0-2.3,1.9-4.3,4.3-4.3c2.4,0,4.2,1.9,4.2,4.3
		C386.1,1197.6,384.2,1199.4,381.9,1199.4z"/>
	<path class="st0" d="M382.5,1155.2c0.5-2.3,2.8-3.7,5.1-3.2c2,0.5,3.3,2.2,3.3,4.1c0,0.3,0,0.6-0.1,1c-0.5,2.3-2.8,3.7-5.1,3.2
		C383.4,1159.8,382,1157.5,382.5,1155.2z"/>
	<path class="st0" d="M403.5,1257.6c0,1.4-0.7,2.8-2,3.6c-2,1.2-4.6,0.7-5.8-1.3c-1.3-2-0.7-4.6,1.3-5.9c2-1.3,4.6-0.7,5.9,1.3
		C403.3,1256.1,403.5,1256.9,403.5,1257.6z"/>
	<path class="st0" d="M397.1,1246.2c0,1.6-0.9,3.1-2.4,3.8c-2.1,1-4.6,0.1-5.7-2c-1-2.1-0.1-4.6,2-5.7c2.1-1,4.6-0.1,5.7,2
		C397,1244.9,397.1,1245.5,397.1,1246.2z"/>
	<path class="st0" d="M418.8,1281.2c-0.8,0.8-1.9,1.3-3,1.3c-1.2,0-2.2-0.5-3-1.3c-1.6-1.6-1.6-4.4,0-6c0.8-0.8,1.9-1.3,3-1.3
		c1.1,0,2.2,0.5,3,1.3c0.8,0.8,1.3,1.9,1.3,3C420,1279.3,419.6,1280.4,418.8,1281.2z"/>
	<path class="st0" d="M473.7,623.8c0.8-0.8,1.9-1.2,3-1.2c1.1,0,2.2,0.4,3,1.2c0.8,0.8,1.2,1.9,1.2,3c0,1.1-0.5,2.2-1.2,3
		c-0.8,0.8-1.9,1.3-3,1.3c-1.1,0-2.2-0.5-3-1.3C472.1,628.3,472.1,625.4,473.7,623.8z"/>
	<path class="st0" d="M490.6,880.2c0.9-2.2,3.4-3.2,5.6-2.3c1.7,0.7,2.6,2.3,2.6,4c0,0.6-0.1,1.1-0.3,1.6c-0.9,2.2-3.4,3.2-5.6,2.3
		C490.8,884.9,489.8,882.4,490.6,880.2z"/>
	<path class="st0" d="M479.4,639.6c-1.1-2-0.4-4.6,1.7-5.7c2.1-1.1,4.6-0.3,5.8,1.7c0.3,0.6,0.5,1.4,0.5,2c0,1.5-0.8,3-2.3,3.7
		C483.1,642.5,480.5,641.7,479.4,639.6z"/>
	<path class="st0" d="M498.6,856.9c0.6-2.3,3-3.6,5.2-2.9c1.9,0.6,3.1,2.3,3.1,4.1c0,0.4,0,0.8-0.2,1.1c-0.6,2.3-3,3.6-5.2,2.9
		C499.3,861.5,498,859.2,498.6,856.9z"/>
	<path class="st0" d="M495,868.7c0.7-2.2,3.2-3.4,5.4-2.6c1.7,0.6,2.9,2.3,2.9,4c0,0.5,0,0.9-0.2,1.4c-0.8,2.2-3.2,3.4-5.4,2.6
		C495.4,873.3,494.2,870.9,495,868.7z"/>
	<path class="st0" d="M501.7,845c0.5-2.3,2.8-3.7,5.1-3.2c2,0.5,3.3,2.2,3.3,4.1c0,0.3,0,0.6-0.1,1c-0.6,2.3-2.8,3.7-5.1,3.2
		C502.6,849.5,501.1,847.3,501.7,845z"/>
	<path class="st0" d="M493.7,673.6C493.6,673.6,493.6,673.6,493.7,673.6c-0.8-2.2,0.5-4.6,2.7-5.4c2.2-0.7,4.6,0.5,5.4,2.8
		c0.1,0.4,0.2,0.8,0.2,1.3c0,1.8-1.1,3.5-2.9,4C496.8,677.1,494.4,675.8,493.7,673.6z"/>
	<path class="st0" d="M502.8,709.6c-0.5-2.3,1.1-4.6,3.4-5c2.3-0.4,4.6,1.1,5,3.4c0,0.3,0.1,0.5,0.1,0.8c0,2-1.4,3.8-3.4,4.2
		C505.5,713.4,503.2,711.9,502.8,709.6z"/>
	<path class="st0" d="M489.6,662c-0.9-2.2,0.3-4.7,2.5-5.5c2.2-0.9,4.6,0.3,5.5,2.4c0.2,0.5,0.3,1,0.3,1.5c0,1.7-1.1,3.3-2.8,4
		C492.9,665.3,490.4,664.1,489.6,662z"/>
	<path class="st0" d="M500.2,697.4c-0.5-2.3,0.9-4.5,3.2-5.1c2.3-0.6,4.6,0.9,5.1,3.2c0.1,0.3,0.1,0.6,0.1,1c0,1.9-1.3,3.7-3.3,4.1
		C503,701.1,500.8,699.7,500.2,697.4z"/>
	<path class="st0" d="M497.2,685.5c-0.6-2.3,0.7-4.6,3-5.2c2.3-0.6,4.6,0.7,5.2,3c0.1,0.4,0.1,0.8,0.1,1.1c0,1.9-1.2,3.6-3.1,4.1
		C500.2,689,497.8,687.7,497.2,685.5z"/>
	<path class="st0" d="M484.8,650.6c-1-2.2,0-4.7,2.1-5.7c2.1-1,4.7,0,5.6,2.1c0.3,0.6,0.4,1.2,0.4,1.7c0,1.6-0.9,3.2-2.5,3.9
		C488.3,653.7,485.8,652.8,484.8,650.6z"/>
	<path class="st0" d="M504.2,832.8C504.1,832.8,504.1,832.8,504.2,832.8c0.4-2.3,2.6-3.8,4.9-3.4c2,0.4,3.5,2.2,3.5,4.2
		c0,0.3,0,0.5-0.1,0.8c-0.4,2.3-2.6,3.8-4.9,3.4C505.2,837.4,503.7,835.2,504.2,832.8z"/>
	<path class="st0" d="M508.7,758.8c-0.1-2.3,1.7-4.3,4-4.5c2.3-0.1,4.3,1.7,4.4,4c0,0.1,0,0.1,0,0.2c0,2.2-1.8,4.1-4.1,4.3
		C510.8,763,508.8,761.1,508.7,758.8z"/>
	<path class="st0" d="M507.8,746.4c-0.2-2.3,1.6-4.4,3.9-4.6c2.3-0.2,4.4,1.5,4.6,3.9c0,0.1,0,0.2,0,0.3c0,2.2-1.7,4.1-3.9,4.3
		C510.1,750.5,508.1,748.8,507.8,746.4z"/>
	<path class="st0" d="M506.6,734.1c-0.3-2.3,1.4-4.5,3.7-4.8c2.3-0.3,4.5,1.4,4.8,3.7c0,0.2,0,0.3,0,0.5c0,2.1-1.6,4-3.7,4.2
		C509,738.1,506.9,736.4,506.6,734.1z"/>
	<path class="st0" d="M504.9,721.8c-0.4-2.3,1.2-4.5,3.5-4.9c2.3-0.4,4.5,1.2,4.8,3.5c0,0.2,0,0.4,0,0.6c0,2.1-1.5,3.9-3.6,4.2
		C507.5,725.7,505.3,724.1,504.9,721.8z"/>
	<path class="st0" d="M509.1,771.2c0-2.3,1.8-4.3,4.2-4.3c2.3,0,4.3,1.8,4.3,4.2c0,0,0,0,0,0c0,2.3-1.9,4.2-4.2,4.3
		C511,775.4,509.1,773.6,509.1,771.2z"/>
	<path class="st0" d="M509,783.6c0-2.3,2-4.2,4.3-4.2c2.3,0,4.2,2,4.2,4.3c0,0,0,0.1,0,0.1c-0.1,2.3-2,4.2-4.3,4.2
		C510.8,787.9,509,785.9,509,783.6z"/>
	<path class="st0" d="M506.1,820.6c0.3-2.3,2.5-4,4.8-3.6c2.1,0.3,3.7,2.1,3.7,4.2c0,0.2,0,0.4,0,0.5c-0.3,2.3-2.5,4-4.8,3.7
		C507.4,825.1,505.8,823,506.1,820.6z"/>
	<path class="st0" d="M507.6,808.3c0.2-2.3,2.3-4,4.6-3.8c2.2,0.2,3.8,2.1,3.8,4.2c0,0.2,0,0.3,0,0.4c-0.2,2.3-2.3,4-4.6,3.8
		C509,812.7,507.3,810.7,507.6,808.3z"/>
	<path class="st0" d="M508.5,796c0.1-2.3,2.2-4.1,4.5-4c2.3,0.1,4,2,4,4.3c0,0.1,0,0.2,0,0.3c-0.2,2.3-2.2,4.1-4.5,4
		C510.2,800.3,508.4,798.3,508.5,796z"/>
	<path class="st0" d="M486.5,890.3c0.8-0.8,1.9-1.3,3-1.3c1.1,0,2.2,0.5,3,1.3c0.8,0.8,1.2,1.9,1.2,3c0,1.1-0.5,2.2-1.2,3
		c-0.8,0.8-1.9,1.2-3,1.2c-1.1,0-2.2-0.4-3-1.2C484.9,894.8,484.9,891.9,486.5,890.3z"/>
	<path class="st0" d="M352.7,259.7c5.7-6.4,8.1-12,14.2-17.4c20.2,1.1,38.3-4.7,57.1-13.4c15.7-7.3,30.4-17.5,42.4-30.3
		c6.7-9.1,11.6-19.8,13.9-30.2c2.8-12.5-1.3-28.9-16.5-29.5c-11.7-0.5-19.9,12.4-19.5,22.5c0,2.4-3.3,2.7-4.1,0.8
		c-0.2-0.1-0.4-0.2-0.6-0.4c-24.5-60,35.5-66.9,50.3-53.6C484.7,93,464,86.6,449.6,87.2c-27.7,1-20.7-31.4-45.7-30.8
		C383.7,56.8,375.2,74,375.2,84c0,10.6,14.2,17.4,15.4,28.7c1.4,12-8.5,21.3-19.1,20.7c-28.7-1.6-24.4-44.8-13.3-64.8
		c8-17.7,25.2-31.1,44.9-36.9c-26.6,0.1-50.2,10.7-61,40.2c-24.3-3.7-7.7-44.2,14-45.6c-26.7-10-70.7,17.9-55.2,44.7
		c0.1,0,0.8,6.3-6.4,4.5c-15.9-2.9-19.2-22.3-14.2-36.4c19.2-54.3,158.1-55.7,208.3,19.5c37.3,56,25.3,128.5-24.1,168.2
		C432.2,252.9,393.4,263.3,352.7,259.7z"/>
	<path class="st0" d="M133.7,4.6C122.6,1.8,111,1.3,99.5,2C88,2.8,76.6,5.3,65.7,9.5C55,13.8,44.8,19.8,36.2,27.5
		c-4.3,3.8-8.3,8-12,12.5c-3.5,4.5-6.8,9.3-9.5,14.3c7-9,14.7-17.3,23.6-24.2c8.9-6.9,18.6-12.5,29.1-16.5
		c10.4-4.1,21.4-6.7,32.5-8.2c5.6-0.8,11.2-1.2,16.9-1.2C122.3,3.8,128,4.1,133.7,4.6z"/>
</g>
</svg>
